0
SECTION
2
HEADER
9
$INSUNITS
70
4
9
$ACADVER
1
AC1014
9
$HANDSEED
5
FFFF
0
ENDSEC
0
SECTION
2
TABLES
0
TABLE
2
VPORT
5
8
100
AcDbSymbolTable
0
ENDTAB
0
TABLE
2
LTYPE
5
5
100
AcDbSymbolTable
0
LTYPE
5
14
100
AcDbSymbolTableRecord
100
AcDbLinetypeTableRecord
2
BYBLOCK
70
0
0
LTYPE
5
15
100
AcDbSymbolTableRecord
100
AcDbLinetypeTableRecord
2
BYLAYER
70
0
0
ENDTAB
0
TABLE
2
LAYER
5
2
100
AcDbSymbolTable
70
2
0
LAYER
5
50
100
AcDbSymbolTableRecord
100
AcDbLayerTableRecord
2
0
70
0
6
CONTINUOUS
0
ENDTAB
0
TABLE
2
STYLE
5
3
100
AcDbSymbolTable
70
1
0
STYLE
5
11
100
AcDbSymbolTableRecord
100
AcDbTextStyleTableRecord
2
STANDARD
70
0
0
ENDTAB
0
TABLE
2
VIEW
5
6
100
AcDbSymbolTable
70
0
0
ENDTAB
0
TABLE
2
UCS
5
7
100
AcDbSymbolTable
70
0
0
ENDTAB
0
TABLE
2
APPID
5
9
100
AcDbSymbolTable
70
2
0
APPID
5
12
100
AcDbSymbolTableRecord
100
AcDbRegAppTableRecord
2
ACAD
70
0
0
ENDTAB
0
TABLE
2
DIMSTYLE
5
A
100
AcDbSymbolTable
70
1
0
ENDTAB
0
TABLE
2
BLOCK_RECORD
5
1
100
AcDbSymbolTable
70
1
0
BLOCK_RECORD
5
1F
100
AcDbSymbolTableRecord
100
AcDbBlockTableRecord
2
*MODEL_SPACE
0
BLOCK_RECORD
5
1B
100
AcDbSymbolTableRecord
100
AcDbBlockTableRecord
2
*PAPER_SPACE
0
ENDTAB
0
ENDSEC
0
SECTION
2
BLOCKS
0
BLOCK
5
20
100
AcDbEntity
100
AcDbBlockBegin
2
*MODEL_SPACE
0
ENDBLK
5
21
100
AcDbEntity
100
AcDbBlockEnd
0
BLOCK
5
1C
100
AcDbEntity
100
AcDbBlockBegin
2
*PAPER_SPACE
0
ENDBLK
5
1D
100
AcDbEntity
100
AcDbBlockEnd
0
ENDSEC
0
SECTION
2
ENTITIES
0
LWPOLYLINE
5
100
100
AcDbEntity
8
0
100
AcDbPolyline
90
8
70
1
43
0.0
10
129.8693632284249
20
177.36768696722336
10
129.8693632284249
20
187.36768696722336
42
0.4142135623730977
10
127.86936322842487
20
189.36768696722336
10
67.869363228424874
20
189.36768696722336
42
0.41421356237309509
10
65.869363228424874
20
187.36768696722336
10
65.869363228424874
20
177.36768696722336
42
0.41421356237309509
10
67.869363228424874
20
175.36768696722336
10
127.86936322842487
20
175.36768696722336
42
0.41421356237309509
0
CIRCLE
5
101
100
AcDbEntity
8
0
100
AcDbCircle
10
73.449363228424886
20
171.03768696722338
30
0
40
1.330000000000009
210
7.7037197775489434e-34
220
6.4146350092149934e-50
230
1
0
LINE
5
102
100
AcDbEntity
8
0
100
AcDbLine
10
-147.71063677157511
20
1.0376869672236524
30
0
11
152.28936322842324
21
1.0376869672236608
31
2.505716745004757e-50
0
LINE
5
103
100
AcDbEntity
8
0
100
AcDbLine
10
152.28936322842321
20
1.0376869672236608
30
0
11
152.28936322842489
21
201.03768696722364
31
0
0
LINE
5
104
100
AcDbEntity
8
0
100
AcDbLine
10
152.28936322842489
20
201.03768696722364
30
0
11
-147.71063677157511
21
201.03768696722358
31
7.7037195151337629e-32
0
LINE
5
105
100
AcDbEntity
8
0
100
AcDbLine
10
-147.71063677157514
20
201.03768696722364
30
0
11
-147.71063677157511
21
1.0376869672236566
31
0
0
LWPOLYLINE
5
106
100
AcDbEntity
8
0
100
AcDbPolyline
90
22
70
1
43
0.0
10
-82.762360909506782
20
122.29397243550132
42
-0.86918413491812263
10
-84.210636771575778
20
111.99768696722387
10
-85.710636771575821
20
111.99768696722384
42
0.41421356237309509
10
-87.710636771575764
20
109.99768696722384
10
-87.710636771575764
20
90.747686967223814
42
0.41421356237309243
10
-85.710636771575793
20
88.747686967223828
10
-59.7106367715758
20
88.747686967223828
42
0.41421356237309509
10
-57.710636771575771
20
90.747686967223814
10
-57.710636771575764
20
109.99768696722383
42
0.41421356237309509
10
-59.710636771575764
20
111.99768696722384
10
-61.210636771575786
20
111.99768696722387
42
-0.86918413491811952
10
-62.658912633644768
20
122.29397243550127
42
0.33453033350941269
10
-61.210636771575793
20
124.216366899607
10
-61.210636771575786
20
168.27900703484067
42
0.33453033350940781
10
-62.658912633644746
20
170.20140149894638
42
-0.25849288187209224
10
-66.256922239853253
20
173.79941110515486
42
0.33453033350941153
10
-68.17931670395896
20
175.24768696722384
10
-77.241956839192596
20
175.24768696722384
42
0.33453033350940681
10
-79.164351303298304
20
173.79941110515489
42
-0.25849288187209141
10
-82.762360909506782
20
170.20140149894641
42
0.33453033350941153
10
-84.210636771575764
20
168.27900703484067
10
-84.210636771575764
20
124.21636689960701
42
0.33453033350941086
0
CIRCLE
5
107
100
AcDbEntity
8
0
100
AcDbCircle
10
37.284363228424411
20
117.24768696722347
30
1.1102230246251565e-15
40
1.25
210
6.841442185849517e-49
220
5.6966447152927934e-65
230
1
0
CIRCLE
5
108
100
AcDbEntity
8
0
100
AcDbCircle
10
37.284363228423935
20
68.247686967223501
30
0
40
1.25
210
6.841442185849517e-49
220
5.6966447152927934e-65
230
1
0
CIRCLE
5
109
100
AcDbEntity
8
0
100
AcDbCircle
10
-107.71063677157508
20
41.037686967224616
30
0
40
1.9999999999999929
210
6.841442185849517e-49
220
5.6966447152927934e-65
230
1
0
CIRCLE
5
110
100
AcDbEntity
8
0
100
AcDbCircle
10
112.28936322842493
20
41.037686967223763
30
0
40
2
210
6.9483527742532071e-49
220
-3.8518598887744717e-34
230
1
0
LWPOLYLINE
5
111
100
AcDbEntity
8
0
100
AcDbPolyline
90
16
70
1
43
0.0
10
-20.715636771575461
20
110.27900703484036
10
-20.715636771575831
20
75.216366899606854
42
0.33453033350940864
10
-19.267360909506891
20
73.293972435501132
42
-0.25849288187209163
10
-15.669351303298422
20
69.695962829292611
42
0.33453033350940925
10
-13.746956839192727
20
68.247686967223643
10
30.315683296040653
20
68.247686967223174
42
0.33453033350942402
10
32.238077760146389
20
69.695962829292228
42
-0.25849288187210756
10
35.836087366355017
20
73.29397243550099
42
0.33453033350941003
10
37.284363228424013
20
75.216366899606683
10
37.284363228424368
20
110.27900703484028
42
0.33453033350941047
10
35.836087366355414
20
112.20140149894601
42
-0.25849288187207436
10
32.238077760147029
20
115.79941110515419
42
0.33453033350939093
10
30.315683296041371
20
117.24768696722306
10
-13.746956839192217
20
117.2476869672235
42
0.3345303335094113
10
-15.669351303297949
20
115.79941110515455
42
-0.25849288187209329
10
-19.267360909506486
20
112.20140149894605
42
0.33453033350940936
0
CIRCLE
5
112
100
AcDbEntity
8
0
100
AcDbCircle
10
-20.715636771575412
20
117.24768696722353
30
0
40
1.25
210
6.841442185849517e-49
220
5.6966447152927934e-65
230
1
0
CIRCLE
5
113
100
AcDbEntity
8
0
100
AcDbCircle
10
-20.715636771575902
20
68.247686967223672
30
0
40
1.25
210
6.841442185849517e-49
220
5.6966447152927934e-65
230
1
0
CIRCLE
5
114
100
AcDbEntity
8
0
100
AcDbCircle
10
122.28936322842489
20
171.03768696722364
30
-1.1102230246251565e-15
40
1.25
210
6.841442185849517e-49
220
5.6966447152927934e-65
230
1
0
LWPOLYLINE
5
115
100
AcDbEntity
8
0
100
AcDbPolyline
90
4
70
1
43
0.0
10
65.289363228424136
20
32.037686967223422
10
65.289363228424136
20
26.037686967223408
42
0.99999999999999989
10
69.289363228424165
20
26.037686967223408
10
69.289363228424151
20
32.037686967223422
42
0.99999999999999989
0
LWPOLYLINE
5
116
100
AcDbEntity
8
0
100
AcDbPolyline
90
4
70
1
43
0.0
10
25.28936322842414
20
32.037686967223422
10
25.28936322842414
20
26.037686967223408
42
0.99999999999999989
10
29.289363228424158
20
26.037686967223408
10
29.289363228424147
20
32.037686967223422
42
0.99999999999999989
0
LWPOLYLINE
5
117
100
AcDbEntity
8
0
100
AcDbPolyline
90
4
70
1
43
0.0
10
5.2893632284241381
20
32.037686967223422
10
5.2893632284241381
20
26.037686967223408
42
0.99999999999999989
10
9.2893632284241594
20
26.037686967223408
10
9.2893632284241647
20
32.037686967223422
42
0.99999999999999989
0
LWPOLYLINE
5
118
100
AcDbEntity
8
0
100
AcDbPolyline
90
4
70
1
43
0.0
10
-54.710636771575821
20
32.037686967223422
10
-54.710636771575821
20
26.037686967223408
42
0.99999999999999989
10
-50.710636771575835
20
26.037686967223408
10
-50.710636771575828
20
32.037686967223422
42
0.99999999999999989
0
CIRCLE
5
119
100
AcDbEntity
8
0
100
AcDbCircle
10
-84.210636771575764
20
117.24768696722386
30
1.1102230246251565e-15
40
1.25
210
6.841442185849517e-49
220
5.6966447152927934e-65
230
1
0
CIRCLE
5
120
100
AcDbEntity
8
0
100
AcDbCircle
10
-84.210636771575764
20
175.24768696722387
30
0
40
1.25
210
6.841442185849517e-49
220
5.6966447152927934e-65
230
1
0
LWPOLYLINE
5
121
100
AcDbEntity
8
0
100
AcDbPolyline
90
4
70
1
43
0.0
10
-64.710636771575821
20
32.037686967223422
10
-64.710636771575821
20
26.037686967223408
42
0.99999999999999989
10
-60.710636771575835
20
26.037686967223408
10
-60.710636771575828
20
32.037686967223422
42
0.99999999999999989
0
LWPOLYLINE
5
122
100
AcDbEntity
8
0
100
AcDbPolyline
90
4
70
1
43
0.0
10
-34.710636771575864
20
32.037686967223422
10
-34.710636771575864
20
26.037686967223408
42
0.99999999999999989
10
-30.710636771575842
20
26.037686967223408
10
-30.710636771575835
20
32.037686967223422
42
0.99999999999999989
0
LWPOLYLINE
5
123
100
AcDbEntity
8
0
100
AcDbPolyline
90
4
70
1
43
0.0
10
-24.71063677157586
20
32.037686967223422
10
-24.71063677157586
20
26.037686967223408
42
0.99999999999999989
10
-20.710636771575842
20
26.037686967223408
10
-20.710636771575835
20
32.037686967223422
42
0.99999999999999989
0
LWPOLYLINE
5
124
100
AcDbEntity
8
0
100
AcDbPolyline
90
4
70
1
43
0.0
10
55.289363228424136
20
32.037686967223422
10
55.289363228424136
20
26.037686967223408
42
0.99999999999999989
10
59.289363228424165
20
26.037686967223408
10
59.289363228424151
20
32.037686967223422
42
0.99999999999999989
0
LWPOLYLINE
5
125
100
AcDbEntity
8
0
100
AcDbPolyline
90
4
70
1
43
0.0
10
75.289363228424136
20
32.037686967223422
10
75.289363228424136
20
26.037686967223408
42
0.99999999999999989
10
79.289363228424165
20
26.037686967223408
10
79.289363228424151
20
32.037686967223422
42
0.99999999999999989
0
LWPOLYLINE
5
126
100
AcDbEntity
8
0
100
AcDbPolyline
90
4
70
1
43
0.0
10
35.289363228424136
20
32.037686967223422
10
35.289363228424136
20
26.037686967223408
42
0.99999999999999989
10
39.289363228424158
20
26.037686967223408
10
39.289363228424151
20
32.037686967223422
42
0.99999999999999989
0
LWPOLYLINE
5
127
100
AcDbEntity
8
0
100
AcDbPolyline
90
4
70
1
43
0.0
10
-14.710636771575862
20
32.037686967223422
10
-14.710636771575862
20
26.037686967223408
42
0.99999999999999989
10
-10.710636771575841
20
26.037686967223408
10
-10.710636771575835
20
32.037686967223422
42
0.99999999999999989
0
LWPOLYLINE
5
128
100
AcDbEntity
8
0
100
AcDbPolyline
90
4
70
1
43
0.0
10
-44.710636771575864
20
32.037686967223422
10
-44.710636771575864
20
26.037686967223408
42
0.99999999999999989
10
-40.710636771575835
20
26.037686967223408
10
-40.710636771575828
20
32.037686967223422
42
0.99999999999999989
0
CIRCLE
5
129
100
AcDbEntity
8
0
100
AcDbCircle
10
-61.210636771575786
20
117.24768696722384
30
0
40
1.25
210
6.841442185849517e-49
220
5.6966447152927934e-65
230
1
0
CIRCLE
5
130
100
AcDbEntity
8
0
100
AcDbCircle
10
-61.210636771575793
20
175.24768696722384
30
-1.1102230246251565e-15
40
1.25
210
6.841442185849517e-49
220
5.6966447152927934e-65
230
1
0
LWPOLYLINE
5
131
100
AcDbEntity
8
0
100
AcDbPolyline
90
4
70
1
43
0.0
10
-74.710636771575821
20
32.037686967223422
10
-74.710636771575821
20
26.037686967223408
42
0.99999999999999989
10
-70.710636771575835
20
26.037686967223408
10
-70.710636771575835
20
32.037686967223422
42
0.99999999999999989
0
LWPOLYLINE
5
132
100
AcDbEntity
8
0
100
AcDbPolyline
90
4
70
1
43
0.0
10
15.289363228424138
20
32.037686967223422
10
15.289363228424138
20
26.037686967223408
42
0.99999999999999989
10
19.289363228424158
20
26.037686967223408
10
19.289363228424165
20
32.037686967223422
42
0.99999999999999989
0
LWPOLYLINE
5
133
100
AcDbEntity
8
0
100
AcDbPolyline
90
4
70
1
43
0.0
10
-0.71063677157584082
20
26.037686967223408
10
-0.71063677157584126
20
32.037686967223422
42
0.99999999999999989
10
-4.7106367715758628
20
32.037686967223422
10
-4.7106367715758699
20
26.037686967223408
42
0.99999999999999989
0
LWPOLYLINE
5
134
100
AcDbEntity
8
0
100
AcDbPolyline
90
4
70
1
43
0.0
10
45.289363228424136
20
32.037686967223422
10
45.289363228424136
20
26.037686967223408
42
0.99999999999999989
10
49.289363228424165
20
26.037686967223408
10
49.289363228424151
20
32.037686967223422
42
0.99999999999999989
0
LWPOLYLINE
5
135
100
AcDbEntity
8
0
100
AcDbPolyline
90
4
70
1
43
0.0
10
27.289363228424435
20
3.0376869672234368
10
27.289363228424371
20
4.0376869672234159
10
-22.710636771575512
20
4.0376869672234497
10
-22.710636771575547
20
3.0376869672234355
0
LWPOLYLINE
5
136
100
AcDbEntity
8
0
100
AcDbPolyline
90
6
70
1
43
0.0
10
130.28936322842276
20
199.03768696722375
10
130.28936322842276
20
198.03768696722327
10
149.28936322842279
20
198.03768696722324
10
149.28936322842276
20
179.03768696722369
10
150.28936322842276
20
179.03768696722369
10
150.28936322842489
20
199.03768696722366
0
LWPOLYLINE
5
137
100
AcDbEntity
8
0
100
AcDbPolyline
90
6
70
1
43
0.0
10
-145.71063677157269
20
179.03768696722392
10
-144.71063677157269
20
179.03768696722392
10
-144.71063677157269
20
198.03768696722344
10
-125.71063677157269
20
198.03768696722344
10
-125.71063677157267
20
199.03768696722392
10
-145.71063677157514
20
199.03768696722366
0
LWPOLYLINE
5
138
100
AcDbEntity
8
0
100
AcDbPolyline
90
4
70
1
43
0.0
10
-144.71063677157275
20
81.037686967223379
10
-144.71063677157275
20
121.03768696722386
10
-145.71063677157275
20
121.03768696722386
10
-145.71063677157275
20
81.037686967223379
0
LWPOLYLINE
5
139
100
AcDbEntity
8
0
100
AcDbPolyline
90
6
70
1
43
0.0
10
149.28936322842264
20
23.037686967224257
10
149.28936322842264
20
4.0376869672235616
10
130.2893632283193
20
4.0376869672235962
10
130.28936322831876
20
3.0376869672235465
10
150.28936322842324
20
3.0376869672236495
10
150.28936322842264
20
23.037686967224239
0
LWPOLYLINE
5
140
100
AcDbEntity
8
0
100
AcDbPolyline
90
4
70
1
43
0.0
10
-22.710636771575459
20
199.03768696722341
10
-22.710636771575459
20
198.03768696722307
10
27.289363228424577
20
198.03768696722307
10
27.289363228424577
20
199.03768696722338
0
LWPOLYLINE
5
141
100
AcDbEntity
8
0
100
AcDbPolyline
90
6
70
1
43
0.0
10
-125.71063677146894
20
3.0376869672237881
10
-125.71063677146947
20
4.0376869672238023
10
-144.71063677157281
20
4.0376869672238014
10
-144.71063677157281
20
23.037686967223326
10
-145.71063677157281
20
23.037686967223326
10
-145.71063677157514
20
3.037686967223622
0
LWPOLYLINE
5
142
100
AcDbEntity
8
0
100
AcDbPolyline
90
4
70
1
43
0.0
10
150.2893632284227
20
121.03768696722362
10
149.2893632284227
20
121.03768696722362
10
149.2893632284227
20
81.037686967223578
10
150.28936322842267
20
81.037686967223578
0
CIRCLE
5
143
100
AcDbEntity
8
0
100
AcDbCircle
10
142.28936322842489
20
191.03768696722375
30
-1.1102230246251565e-15
40
1.4999999999999991
210
7.7037197775489434e-34
220
6.4146350092149934e-50
230
1
0
CIRCLE
5
144
100
AcDbEntity
8
0
100
AcDbCircle
10
142.2893632284248
20
11.03768696722366
30
0
40
1.4999999999999991
210
7.7037197775489434e-34
220
6.4146350092149934e-50
230
1
0
CIRCLE
5
145
100
AcDbEntity
8
0
100
AcDbCircle
10
-44.377303438242741
20
191.03768696722366
30
-1.1102230246251565e-15
40
1.5000000000000036
210
7.7037197775489434e-34
220
6.4146350092149934e-50
230
1
0
CIRCLE
5
146
100
AcDbEntity
8
0
100
AcDbCircle
10
48.956029895091611
20
191.03768696722372
30
0
40
1.5000000000000036
210
7.7037197775489434e-34
220
6.4146350092149934e-50
230
1
0
CIRCLE
5
147
100
AcDbEntity
8
0
100
AcDbCircle
10
-137.71063677157511
20
191.03768696722364
30
0
40
1.4999999999999858
210
-8.3523891500159008e-53
220
-6.9547607388863219e-69
230
1
0
CIRCLE
5
148
100
AcDbEntity
8
0
100
AcDbCircle
10
48.956029895091618
20
11.037686967223408
30
0
40
1.4999999999999947
210
7.7037197775489434e-34
220
3.8518598887744726e-34
230
1
0
CIRCLE
5
149
100
AcDbEntity
8
0
100
AcDbCircle
10
-137.71063677157508
20
11.037686967222836
30
0
40
1.4999999999999858
210
-8.3523891500159008e-53
220
-6.9547607388863219e-69
230
1
0
CIRCLE
5
150
100
AcDbEntity
8
0
100
AcDbCircle
10
-44.37730343824272
20
11.037686967223053
30
0
40
1.4999999999999858
210
-8.3523891500159008e-53
220
-6.9547607388863219e-69
230
1
0
ENDSEC
0
SECTION
2
OBJECTS
0
DICTIONARY
5
C
100
AcDbDictionary
3
ACAD_GROUP
350
D
3
ACAD_MLINESTYLE
350
17
0
DICTIONARY
5
D
100
AcDbDictionary
0
DICTIONARY
5
1A
330
C
100
AcDbDictionary
0
DICTIONARY
5
17
100
AcDbDictionary
0
ENDSEC
0
EOF
