0
SECTION
2
HEADER
9
$INSUNITS
70
4
9
$ACADVER
1
AC1014
9
$HANDSEED
5
FFFF
0
ENDSEC
0
SECTION
2
TABLES
0
TABLE
2
VPORT
5
8
100
AcDbSymbolTable
0
ENDTAB
0
TABLE
2
LTYPE
5
5
100
AcDbSymbolTable
0
LTYPE
5
14
100
AcDbSymbolTableRecord
100
AcDbLinetypeTableRecord
2
BYBLOCK
70
0
0
LTYPE
5
15
100
AcDbSymbolTableRecord
100
AcDbLinetypeTableRecord
2
BYLAYER
70
0
0
ENDTAB
0
TABLE
2
LAYER
5
2
100
AcDbSymbolTable
70
2
0
LAYER
5
50
100
AcDbSymbolTableRecord
100
AcDbLayerTableRecord
2
0
70
0
6
CONTINUOUS
0
ENDTAB
0
TABLE
2
STYLE
5
3
100
AcDbSymbolTable
70
1
0
STYLE
5
11
100
AcDbSymbolTableRecord
100
AcDbTextStyleTableRecord
2
STANDARD
70
0
0
ENDTAB
0
TABLE
2
VIEW
5
6
100
AcDbSymbolTable
70
0
0
ENDTAB
0
TABLE
2
UCS
5
7
100
AcDbSymbolTable
70
0
0
ENDTAB
0
TABLE
2
APPID
5
9
100
AcDbSymbolTable
70
2
0
APPID
5
12
100
AcDbSymbolTableRecord
100
AcDbRegAppTableRecord
2
ACAD
70
0
0
ENDTAB
0
TABLE
2
DIMSTYLE
5
A
100
AcDbSymbolTable
70
1
0
ENDTAB
0
TABLE
2
BLOCK_RECORD
5
1
100
AcDbSymbolTable
70
1
0
BLOCK_RECORD
5
1F
100
AcDbSymbolTableRecord
100
AcDbBlockTableRecord
2
*MODEL_SPACE
0
BLOCK_RECORD
5
1B
100
AcDbSymbolTableRecord
100
AcDbBlockTableRecord
2
*PAPER_SPACE
0
ENDTAB
0
ENDSEC
0
SECTION
2
BLOCKS
0
BLOCK
5
20
100
AcDbEntity
100
AcDbBlockBegin
2
*MODEL_SPACE
0
ENDBLK
5
21
100
AcDbEntity
100
AcDbBlockEnd
0
BLOCK
5
1C
100
AcDbEntity
100
AcDbBlockBegin
2
*PAPER_SPACE
0
ENDBLK
5
1D
100
AcDbEntity
100
AcDbBlockEnd
0
ENDSEC
0
SECTION
2
ENTITIES
0
LWPOLYLINE
5
100
100
AcDbEntity
8
0
100
AcDbPolyline
90
8
70
1
43
0.0
10
-254.4049999999996
20
176.9599999999997
42
-0.41421356237310542
10
-252.40499999999955
20
178.9599999999997
10
43.594999999998791
20
178.9599999999997
42
-0.41421356237309637
10
45.594999999998791
20
176.9599999999997
10
45.595000000000432
20
-19.040000000000273
42
-0.41421356237309698
10
43.595000000000432
20
-21.04000000000029
10
-252.40499999999955
20
-21.040000000000319
42
-0.41421356237309637
10
-254.40499999999957
20
-19.040000000000283
0
LWPOLYLINE
5
101
100
AcDbEntity
8
0
100
AcDbPolyline
90
4
70
1
43
0.0
10
-79.404999999999887
20
175.95999999999998
10
-79.404999999999831
20
176.95999999999998
10
-129.40499999999983
20
176.95999999999992
10
-129.40499999999975
20
175.95999999999992
0
LINE
5
102
100
AcDbEntity
8
0
100
AcDbLine
10
23.594999999998336
20
-19.04000000000039
30
0
11
23.594999999998336
21
-18.039999999999932
31
0
0
LINE
5
103
100
AcDbEntity
8
0
100
AcDbLine
10
23.594999999998336
20
-18.039999999999932
30
0
11
42.594999999998336
21
-18.039999999999914
31
0
0
LINE
5
104
100
AcDbEntity
8
0
100
AcDbLine
10
42.594999999998336
20
-18.039999999999914
30
0
11
42.594999999998322
21
0.95999999999962782
31
0
0
LINE
5
105
100
AcDbEntity
8
0
100
AcDbLine
10
42.594999999998322
20
0.95999999999962782
30
0
11
43.594999999998322
21
0.95999999999962826
31
0
0
LINE
5
106
100
AcDbEntity
8
0
100
AcDbLine
10
43.594999999998322
20
0.95999999999962826
30
0
11
43.595000000000432
21
-19.040000000000287
31
0
0
LINE
5
107
100
AcDbEntity
8
0
100
AcDbLine
10
43.595000000000432
20
-19.040000000000287
30
0
11
23.594999999998336
21
-19.04000000000039
31
0
0
LINE
5
108
100
AcDbEntity
8
0
100
AcDbLine
10
-252.40499999999713
20
0.95999999999941465
30
0
11
-251.40499999999713
21
0.95999999999941465
31
0
0
LINE
5
109
100
AcDbEntity
8
0
100
AcDbLine
10
-251.40499999999713
20
0.95999999999941465
30
0
11
-251.40499999999713
21
-18.040000000000109
31
0
0
LINE
5
110
100
AcDbEntity
8
0
100
AcDbLine
10
-251.40499999999713
20
-18.040000000000109
30
0
11
-232.40499999999713
21
-18.040000000000092
31
0
0
LINE
5
111
100
AcDbEntity
8
0
100
AcDbLine
10
-232.40499999999713
20
-18.040000000000092
30
0
11
-232.4049999999971
21
-19.040000000000568
31
0
0
LINE
5
112
100
AcDbEntity
8
0
100
AcDbLine
10
-232.4049999999971
20
-19.040000000000568
30
0
11
-252.40499999999955
21
-19.04000000000029
31
0
0
LINE
5
113
100
AcDbEntity
8
0
100
AcDbLine
10
-252.40499999999955
20
-19.04000000000029
30
0
11
-252.40499999999713
21
0.95999999999941465
31
0
0
LWPOLYLINE
5
114
100
AcDbEntity
8
0
100
AcDbPolyline
90
4
70
1
43
0.0
10
-251.40499999999719
20
58.959999999999468
10
-251.40499999999719
20
98.95999999999998
10
-252.40499999999719
20
98.95999999999998
10
-252.40499999999719
20
58.959999999999468
0
LINE
5
115
100
AcDbEntity
8
0
100
AcDbLine
10
42.594999999998194
20
156.9599999999991
30
0
11
42.59499999999818
21
175.95999999999978
31
0
0
LINE
5
116
100
AcDbEntity
8
0
100
AcDbLine
10
42.59499999999818
20
175.95999999999978
30
0
11
23.594999999894846
21
175.95999999999975
31
0
0
LINE
5
117
100
AcDbEntity
8
0
100
AcDbLine
10
23.594999999894846
20
175.95999999999975
30
0
11
23.594999999894313
21
176.95999999999981
31
0
0
LINE
5
118
100
AcDbEntity
8
0
100
AcDbLine
10
23.594999999894313
20
176.95999999999981
30
0
11
43.594999999998798
21
176.9599999999997
31
0
0
LINE
5
119
100
AcDbEntity
8
0
100
AcDbLine
10
43.594999999998798
20
176.9599999999997
30
0
11
43.594999999998194
21
156.9599999999991
31
0
0
LINE
5
120
100
AcDbEntity
8
0
100
AcDbLine
10
43.594999999998194
20
156.9599999999991
30
0
11
42.594999999998194
21
156.9599999999991
31
0
0
LWPOLYLINE
5
121
100
AcDbEntity
8
0
100
AcDbPolyline
90
4
70
1
43
0.0
10
-129.40499999999969
20
-18.039999999999697
10
-129.40499999999969
20
-19.040000000000031
10
-79.40499999999966
20
-19.039999999999996
10
-79.40499999999966
20
-18.039999999999679
0
LINE
5
122
100
AcDbEntity
8
0
100
AcDbLine
10
-232.40499999989339
20
176.95999999999955
30
0
11
-232.40499999989393
21
175.95999999999952
31
0
0
LINE
5
123
100
AcDbEntity
8
0
100
AcDbLine
10
-232.40499999989393
20
175.95999999999952
30
0
11
-251.40499999999724
21
175.95999999999952
31
0
0
LINE
5
124
100
AcDbEntity
8
0
100
AcDbLine
10
-251.40499999999724
20
175.95999999999952
30
0
11
-251.40499999999724
21
156.96000000000001
31
0
0
LINE
5
125
100
AcDbEntity
8
0
100
AcDbLine
10
-251.40499999999724
20
156.96000000000001
30
0
11
-252.40499999999727
21
156.96000000000001
31
0
0
LINE
5
126
100
AcDbEntity
8
0
100
AcDbLine
10
-252.40499999999727
20
156.96000000000001
30
0
11
-252.40499999999963
21
176.9599999999997
31
0
0
LINE
5
127
100
AcDbEntity
8
0
100
AcDbLine
10
-252.40499999999963
20
176.9599999999997
30
0
11
-232.40499999989339
21
176.95999999999955
31
0
0
LWPOLYLINE
5
128
100
AcDbEntity
8
0
100
AcDbPolyline
90
4
70
1
43
0.0
10
42.594999999998265
20
58.959999999999717
10
43.594999999998265
20
58.959999999999717
10
43.59499999999823
20
98.959999999999752
10
42.594999999998237
20
98.959999999999752
0
CIRCLE
5
129
100
AcDbEntity
8
0
100
AcDbCircle
10
-244.40499999999955
20
168.96000000000049
30
0
40
1.4999999999999858
210
0
220
-0
230
1
0
CIRCLE
5
130
100
AcDbEntity
8
0
100
AcDbCircle
10
35.595000000000439
20
-11.04000000000042
30
0
40
1.5000000000000002
210
0
220
-0
230
1
0
CIRCLE
5
131
100
AcDbEntity
8
0
100
AcDbCircle
10
-244.40499999999955
20
-11.040000000000274
30
0
40
1.4999999999999858
210
0
220
-0
230
1
0
LWPOLYLINE
5
132
100
AcDbEntity
8
0
100
AcDbPolyline
90
4
70
1
43
0.0
10
0.30000000000001137
20
-0.30000000000001137
10
0.30000000000001137
20
164.55000000000001
10
-210.46000000000004
20
164.55000000000001
10
-210.46000000000004
20
-0.30000000000001137
0
CIRCLE
5
133
100
AcDbEntity
8
0
100
AcDbCircle
10
35.595000000000347
20
168.9599999999997
30
0
40
1.5000000000000002
210
0
220
-0
230
1
0
CIRCLE
5
134
100
AcDbEntity
8
0
100
AcDbCircle
10
-151.07166666666717
20
168.96000000000029
30
0
40
1.4999999999999858
210
0
220
0
230
1
0
CIRCLE
5
135
100
AcDbEntity
8
0
100
AcDbCircle
10
-151.07166666666717
20
-11.040000000000322
30
0
40
1.5000000000000036
210
0
220
0
230
1
0
CIRCLE
5
136
100
AcDbEntity
8
0
100
AcDbCircle
10
-57.738333333332832
20
168.95999999999992
30
0
40
1.4999999999999947
210
0
220
0
230
1
0
CIRCLE
5
137
100
AcDbEntity
8
0
100
AcDbCircle
10
-57.738333333332825
20
-11.040000000000372
30
0
40
1.5000000000000036
210
0
220
0
230
1
0
ENDSEC
0
SECTION
2
OBJECTS
0
DICTIONARY
5
C
100
AcDbDictionary
3
ACAD_GROUP
350
D
3
ACAD_MLINESTYLE
350
17
0
DICTIONARY
5
D
100
AcDbDictionary
0
DICTIONARY
5
1A
330
C
100
AcDbDictionary
0
DICTIONARY
5
17
100
AcDbDictionary
0
ENDSEC
0
EOF
