0
SECTION
2
HEADER
9
$INSUNITS
70
4
9
$ACADVER
1
AC1014
9
$HANDSEED
5
FFFF
0
ENDSEC
0
SECTION
2
TABLES
0
TABLE
2
VPORT
5
8
100
AcDbSymbolTable
0
ENDTAB
0
TABLE
2
LTYPE
5
5
100
AcDbSymbolTable
0
LTYPE
5
14
100
AcDbSymbolTableRecord
100
AcDbLinetypeTableRecord
2
BYBLOCK
70
0
0
LTYPE
5
15
100
AcDbSymbolTableRecord
100
AcDbLinetypeTableRecord
2
BYLAYER
70
0
0
ENDTAB
0
TABLE
2
LAYER
5
2
100
AcDbSymbolTable
70
2
0
LAYER
5
50
100
AcDbSymbolTableRecord
100
AcDbLayerTableRecord
2
0
70
0
6
CONTINUOUS
0
ENDTAB
0
TABLE
2
STYLE
5
3
100
AcDbSymbolTable
70
1
0
STYLE
5
11
100
AcDbSymbolTableRecord
100
AcDbTextStyleTableRecord
2
STANDARD
70
0
0
ENDTAB
0
TABLE
2
VIEW
5
6
100
AcDbSymbolTable
70
0
0
ENDTAB
0
TABLE
2
UCS
5
7
100
AcDbSymbolTable
70
0
0
ENDTAB
0
TABLE
2
APPID
5
9
100
AcDbSymbolTable
70
2
0
APPID
5
12
100
AcDbSymbolTableRecord
100
AcDbRegAppTableRecord
2
ACAD
70
0
0
ENDTAB
0
TABLE
2
DIMSTYLE
5
A
100
AcDbSymbolTable
70
1
0
ENDTAB
0
TABLE
2
BLOCK_RECORD
5
1
100
AcDbSymbolTable
70
1
0
BLOCK_RECORD
5
1F
100
AcDbSymbolTableRecord
100
AcDbBlockTableRecord
2
*MODEL_SPACE
0
BLOCK_RECORD
5
1B
100
AcDbSymbolTableRecord
100
AcDbBlockTableRecord
2
*PAPER_SPACE
0
ENDTAB
0
ENDSEC
0
SECTION
2
BLOCKS
0
BLOCK
5
20
100
AcDbEntity
100
AcDbBlockBegin
2
*MODEL_SPACE
0
ENDBLK
5
21
100
AcDbEntity
100
AcDbBlockEnd
0
BLOCK
5
1C
100
AcDbEntity
100
AcDbBlockBegin
2
*PAPER_SPACE
0
ENDBLK
5
1D
100
AcDbEntity
100
AcDbBlockEnd
0
ENDSEC
0
SECTION
2
ENTITIES
0
LWPOLYLINE
5
100
100
AcDbEntity
8
0
100
AcDbPolyline
90
8
70
1
43
0.0
10
222.40500000000003
20
178.96000000000004
42
-0.41421356237310542
10
224.40500000000003
20
176.96000000000004
10
224.405
20
-19.039999999999999
42
-0.41421356237309637
10
222.40500000000003
20
-21.039999999999985
10
-13.59499999999997
20
-21.039999999999999
42
-0.41421356237309409
10
-15.594999999999967
20
-19.039999999999999
10
-15.595000000000031
20
176.96000000000004
42
-0.41421356237309437
10
-13.595000000000041
20
178.96000000000004
0
CIRCLE
5
101
100
AcDbEntity
8
0
100
AcDbCircle
10
214.405
20
168.96000000000046
30
0
40
1.4999999999999858
210
0
220
-0
230
1
0
CIRCLE
5
102
100
AcDbEntity
8
0
100
AcDbCircle
10
-5.5949999999999811
20
-11.040000000000077
30
0
40
1.5000000000000002
210
0
220
-0
230
1
0
CIRCLE
5
103
100
AcDbEntity
8
0
100
AcDbCircle
10
214.40499999999997
20
-11.039999999999992
30
0
40
1.4999999999999858
210
0
220
-0
230
1
0
CIRCLE
5
104
100
AcDbEntity
8
0
100
AcDbCircle
10
-5.5949999999998958
20
168.96000000000009
30
0
40
1.5000000000000002
210
0
220
-0
230
1
0
LWPOLYLINE
5
105
100
AcDbEntity
8
0
100
AcDbPolyline
90
4
70
1
43
0.0
10
-13.59499999999935
20
58.960000000000086
10
-12.594999999999354
20
58.960000000000086
10
-12.594999999999319
20
98.960000000000022
10
-13.594999999999315
20
98.960000000000022
0
LINE
5
106
100
AcDbEntity
8
0
100
AcDbLine
10
202.40499999989652
20
175.95999999999987
30
0
11
202.40499999989601
21
176.95999999999984
31
0
0
LINE
5
107
100
AcDbEntity
8
0
100
AcDbLine
10
202.40499999989601
20
176.95999999999984
30
0
11
222.40500000000009
21
176.96000000000009
31
0
0
LINE
5
108
100
AcDbEntity
8
0
100
AcDbLine
10
222.40500000000009
20
176.96000000000009
30
0
11
222.40499999999992
21
156.95999999999805
31
0
0
LINE
5
109
100
AcDbEntity
8
0
100
AcDbLine
10
222.40499999999992
20
156.95999999999805
30
0
11
221.40499999999989
21
156.95999999999805
31
0
0
LINE
5
110
100
AcDbEntity
8
0
100
AcDbLine
10
221.40499999999989
20
156.95999999999805
30
0
11
221.40499999999989
21
175.95999999999981
31
0
0
LINE
5
111
100
AcDbEntity
8
0
100
AcDbLine
10
221.40499999999989
20
175.95999999999981
30
0
11
202.40499999989652
21
175.95999999999987
31
0
0
LWPOLYLINE
5
112
100
AcDbEntity
8
0
100
AcDbPolyline
90
4
70
1
43
0.0
10
129.40500000000017
20
-19.040000000000049
10
129.40500000000017
20
-18.039999999999715
10
79.405000000000143
20
-18.039999999999697
10
79.405000000000143
20
-19.040000000000013
0
LINE
5
113
100
AcDbEntity
8
0
100
AcDbLine
10
-12.594999999999265
20
175.96000000000004
30
0
11
-12.594999999999283
21
156.95999999999992
31
0
0
LINE
5
114
100
AcDbEntity
8
0
100
AcDbLine
10
-12.594999999999283
20
156.95999999999992
30
0
11
-13.594999999999279
21
156.95999999999995
31
0
0
LINE
5
115
100
AcDbEntity
8
0
100
AcDbLine
10
-13.594999999999279
20
156.95999999999995
30
0
11
-13.595000000000038
21
176.96000000000004
31
0
0
LINE
5
116
100
AcDbEntity
8
0
100
AcDbLine
10
-13.595000000000038
20
176.96000000000004
30
0
11
6.4050000001046019
21
176.96000000000004
31
0
0
LINE
5
117
100
AcDbEntity
8
0
100
AcDbLine
10
6.4050000001046019
20
176.96000000000004
30
0
11
6.405000000104069
21
175.96000000000004
31
0
0
LINE
5
118
100
AcDbEntity
8
0
100
AcDbLine
10
6.405000000104069
20
175.96000000000004
30
0
11
-12.594999999999265
21
175.96000000000004
31
0
0
LWPOLYLINE
5
119
100
AcDbEntity
8
0
100
AcDbPolyline
90
4
70
1
43
0.0
10
221.4049999999998
20
98.959999999998359
10
221.4049999999998
20
58.96000000000172
10
222.40499999999983
20
58.960000000000257
10
222.40499999999983
20
98.959999999999752
0
LINE
5
120
100
AcDbEntity
8
0
100
AcDbLine
10
221.40499999999975
20
0.96000000000204588
30
0
11
222.40499999999983
21
0.96000000000204588
31
0
0
LINE
5
121
100
AcDbEntity
8
0
100
AcDbLine
10
222.40499999999983
20
0.96000000000204588
30
0
11
222.40500000000003
21
-19.040000000000006
31
0
0
LINE
5
122
100
AcDbEntity
8
0
100
AcDbLine
10
222.40500000000003
20
-19.040000000000006
30
0
11
202.40499999999975
21
-19.040000000000102
31
0
0
LINE
5
123
100
AcDbEntity
8
0
100
AcDbLine
10
202.40499999999975
20
-19.040000000000102
30
0
11
202.40499999999975
21
-18.039999999999768
31
0
0
LINE
5
124
100
AcDbEntity
8
0
100
AcDbLine
10
202.40499999999975
20
-18.039999999999768
30
0
11
221.40499999999975
21
-18.039999999999733
31
0
0
LINE
5
125
100
AcDbEntity
8
0
100
AcDbLine
10
221.40499999999975
20
-18.039999999999733
30
0
11
221.40499999999975
21
0.96000000000204588
31
0
0
LINE
5
126
100
AcDbEntity
8
0
100
AcDbLine
10
6.4050000000005785
20
-18.039999999999644
30
0
11
6.4050000000005785
21
-19.039999999999942
31
0
0
LINE
5
127
100
AcDbEntity
8
0
100
AcDbLine
10
6.4050000000005785
20
-19.039999999999942
30
0
11
-13.594999999999967
21
-19.039999999999996
31
0
0
LINE
5
128
100
AcDbEntity
8
0
100
AcDbLine
10
-13.594999999999967
20
-19.039999999999996
30
0
11
-13.594999999999404
21
0.96000000000018071
31
0
0
LINE
5
129
100
AcDbEntity
8
0
100
AcDbLine
10
-13.594999999999404
20
0.96000000000018071
30
0
11
-12.594999999999407
21
0.96000000000018071
31
0
0
LINE
5
130
100
AcDbEntity
8
0
100
AcDbLine
10
-12.594999999999407
20
0.96000000000018071
30
0
11
-12.594999999999425
21
-18.039999999999591
31
0
0
LINE
5
131
100
AcDbEntity
8
0
100
AcDbLine
10
-12.594999999999425
20
-18.039999999999591
30
0
11
6.4050000000005785
21
-18.039999999999644
31
0
0
LWPOLYLINE
5
132
100
AcDbEntity
8
0
100
AcDbPolyline
90
4
70
1
43
0.0
10
79.4050000000003
20
176.95999999999998
10
79.405000000000371
20
175.95999999999998
10
129.40500000000023
20
175.95999999999992
10
129.40500000000031
20
176.95999999999992
0
LWPOLYLINE
5
133
100
AcDbEntity
8
0
100
AcDbPolyline
90
10
70
1
43
0.0
10
54.405000000000285
20
139.24999999999994
42
-0.41421356237309509
10
56.405000000000278
20
141.24999999999994
10
174.40500000000026
20
141.24999999999994
10
174.40500000000026
20
142.24999999999991
10
36.405000000000278
20
142.24999999999991
42
0.41421356237309509
10
34.405000000000278
20
140.24999999999994
10
34.405000000000278
20
132.24999999999991
42
0.41421356237309509
10
36.405000000000278
20
130.24999999999994
10
52.405000000000271
20
130.24999999999994
42
0.41421356237309509
10
54.405000000000285
20
132.24999999999991
0
LWPOLYLINE
5
134
100
AcDbEntity
8
0
100
AcDbPolyline
90
4
70
1
43
0.0
10
51.405000000000278
20
157.95999999999989
10
51.405000000000278
20
163.95999999999992
42
0.99999999999999989
10
47.405000000000292
20
163.95999999999992
10
47.405000000000285
20
157.95999999999989
42
0.99999999999999989
0
LWPOLYLINE
5
135
100
AcDbEntity
8
0
100
AcDbPolyline
90
4
70
1
43
0.0
10
131.40500000000029
20
157.95999999999989
10
131.40500000000029
20
163.95999999999992
42
0.99999999999999989
10
127.40500000000029
20
163.95999999999992
10
127.40500000000029
20
157.95999999999989
42
0.99999999999999989
0
LWPOLYLINE
5
136
100
AcDbEntity
8
0
100
AcDbPolyline
90
4
70
1
43
0.0
10
141.40500000000029
20
157.95999999999989
10
141.40500000000029
20
163.95999999999992
42
0.99999999999999989
10
137.40500000000029
20
163.95999999999992
10
137.40500000000029
20
157.95999999999989
42
0.99999999999999989
0
LWPOLYLINE
5
137
100
AcDbEntity
8
0
100
AcDbPolyline
90
4
70
1
43
0.0
10
171.40500000000029
20
157.95999999999989
10
171.40500000000029
20
163.95999999999992
42
0.99999999999999989
10
167.40500000000029
20
163.95999999999992
10
167.40500000000029
20
157.95999999999989
42
0.99999999999999989
0
CIRCLE
5
138
100
AcDbEntity
8
0
100
AcDbCircle
10
197.90499999999966
20
5.4600000000003535
30
0
40
1.25
210
0
220
-0
230
1
0
CIRCLE
5
139
100
AcDbEntity
8
0
100
AcDbCircle
10
197.90499999999966
20
63.460000000000356
30
0
40
1.25
210
0
220
-0
230
1
0
LWPOLYLINE
5
140
100
AcDbEntity
8
0
100
AcDbPolyline
90
4
70
1
43
0.0
10
161.40500000000029
20
157.95999999999989
10
161.40500000000029
20
163.95999999999992
42
0.99999999999999989
10
157.40500000000029
20
163.95999999999992
10
157.40500000000029
20
157.95999999999989
42
0.99999999999999989
0
LWPOLYLINE
5
141
100
AcDbEntity
8
0
100
AcDbPolyline
90
4
70
1
43
0.0
10
101.40500000000029
20
157.95999999999989
10
101.40500000000029
20
163.95999999999992
42
0.99999999999999989
10
97.405000000000285
20
163.95999999999992
10
97.405000000000285
20
157.95999999999989
42
0.99999999999999989
0
LWPOLYLINE
5
142
100
AcDbEntity
8
0
100
AcDbPolyline
90
4
70
1
43
0.0
10
81.405000000000285
20
157.95999999999989
10
81.405000000000285
20
163.95999999999992
42
0.99999999999999989
10
77.405000000000285
20
163.95999999999992
10
77.405000000000285
20
157.95999999999989
42
0.99999999999999989
0
LWPOLYLINE
5
143
100
AcDbEntity
8
0
100
AcDbPolyline
90
4
70
1
43
0.0
10
41.405000000000278
20
157.95999999999989
10
41.405000000000278
20
163.95999999999992
42
0.99999999999999989
10
37.405000000000285
20
163.95999999999992
10
37.405000000000285
20
157.95999999999989
42
0.99999999999999989
0
LWPOLYLINE
5
144
100
AcDbEntity
8
0
100
AcDbPolyline
90
16
70
1
43
0.0
10
196.45672413793068
20
58.413714531722903
42
-0.25849288187209163
10
192.8587145317222
20
62.011724137931388
42
0.33453033350940914
10
190.93632006761649
20
63.460000000000356
10
181.87367993238283
20
63.460000000000356
42
0.33453033350940914
10
179.95128546827712
20
62.011724137931388
42
-0.25849288187209163
10
176.35327586206864
20
58.413714531722903
42
0.33453033350941125
10
174.90499999999966
20
56.491320067617195
10
174.90499999999966
20
12.428679932383515
42
0.33453033350941092
10
176.35327586206864
20
10.506285468277813
42
-0.25849288187209163
10
179.95128546827712
20
6.9082758620693232
42
0.33453033350940992
10
181.87367993238283
20
5.4600000000003543
10
190.93632006761649
20
5.4600000000003535
42
0.33453033350940897
10
192.8587145317222
20
6.9082758620693143
42
-0.25849288187209191
10
196.45672413793068
20
10.506285468277806
42
0.33453033350941136
10
197.90499999999966
20
12.428679932383515
10
197.90499999999966
20
56.491320067617195
42
0.33453033350941125
0
LWPOLYLINE
5
145
100
AcDbEntity
8
0
100
AcDbPolyline
90
4
70
1
43
0.0
10
61.405000000000278
20
157.95999999999989
10
61.405000000000278
20
163.95999999999992
42
0.99999999999999989
10
57.405000000000292
20
163.95999999999992
10
57.405000000000285
20
157.95999999999989
42
0.99999999999999989
0
LWPOLYLINE
5
146
100
AcDbEntity
8
0
100
AcDbPolyline
90
4
70
1
43
0.0
10
107.40500000000029
20
163.95999999999992
10
107.40500000000029
20
157.95999999999989
42
0.99999999999999989
10
111.40500000000029
20
157.95999999999989
10
111.40500000000029
20
163.95999999999992
42
0.99999999999999989
0
LWPOLYLINE
5
147
100
AcDbEntity
8
0
100
AcDbPolyline
90
4
70
1
43
0.0
10
91.405000000000285
20
157.95999999999989
10
91.405000000000285
20
163.95999999999992
42
0.99999999999999989
10
87.405000000000285
20
163.95999999999992
10
87.405000000000285
20
157.95999999999989
42
0.99999999999999989
0
LWPOLYLINE
5
148
100
AcDbEntity
8
0
100
AcDbPolyline
90
4
70
1
43
0.0
10
181.40500000000029
20
157.95999999999989
10
181.40500000000029
20
163.95999999999992
42
0.99999999999999989
10
177.40500000000029
20
163.95999999999992
10
177.40500000000029
20
157.95999999999989
42
0.99999999999999989
0
CIRCLE
5
149
100
AcDbEntity
8
0
100
AcDbCircle
10
174.90499999999966
20
5.4600000000003561
30
0
40
1.25
210
0
220
-0
230
1
0
CIRCLE
5
150
100
AcDbEntity
8
0
100
AcDbCircle
10
174.90499999999966
20
63.460000000000356
30
0
40
1.25
210
0
220
-0
230
1
0
LWPOLYLINE
5
151
100
AcDbEntity
8
0
100
AcDbPolyline
90
4
70
1
43
0.0
10
151.40500000000029
20
157.95999999999989
10
151.40500000000029
20
163.95999999999992
42
0.99999999999999989
10
147.40500000000029
20
163.95999999999992
10
147.40500000000029
20
157.95999999999989
42
0.99999999999999989
0
LWPOLYLINE
5
152
100
AcDbEntity
8
0
100
AcDbPolyline
90
4
70
1
43
0.0
10
121.40500000000029
20
157.95999999999989
10
121.40500000000029
20
163.95999999999992
42
0.99999999999999989
10
117.40500000000029
20
163.95999999999992
10
117.40500000000029
20
157.95999999999989
42
0.99999999999999989
0
LWPOLYLINE
5
153
100
AcDbEntity
8
0
100
AcDbPolyline
90
4
70
1
43
0.0
10
71.405000000000285
20
157.95999999999989
10
71.405000000000285
20
163.95999999999992
42
0.99999999999999989
10
67.405000000000285
20
163.95999999999992
10
67.405000000000285
20
157.95999999999989
42
0.99999999999999989
0
LWPOLYLINE
5
154
100
AcDbEntity
8
0
100
AcDbPolyline
90
4
70
1
43
0.0
10
31.405000000000282
20
157.95999999999989
10
31.405000000000282
20
163.95999999999992
42
0.99999999999999989
10
27.405000000000289
20
163.95999999999992
10
27.405000000000285
20
157.95999999999989
42
0.99999999999999989
0
LWPOLYLINE
5
155
100
AcDbEntity
8
0
100
AcDbPolyline
90
16
70
1
43
0.0
10
127.40999999999991
20
69.718679932382997
10
127.41000000000028
20
104.78132006761649
42
0.33453033350940864
10
125.96172413793134
20
106.70371453172221
42
-0.25849288187209163
10
122.36371453172288
20
110.30172413793073
42
0.33453033350940903
10
120.44132006761717
20
111.7499999999997
10
76.37867993238379
20
111.75000000000017
42
0.33453033350942379
10
74.45628546827804
20
110.30172413793113
42
-0.25849288187210756
10
70.858275862069434
20
106.70371453172237
42
0.33453033350940903
10
69.410000000000437
20
104.78132006761668
10
69.410000000000082
20
69.718679932383068
42
0.33453033350940981
10
70.858275862069036
20
67.796285468277361
42
-0.2584928818720757
10
74.456285468277429
20
64.198275862069153
42
0.33453033350939076
10
76.378679932383079
20
62.750000000000284
10
120.44132006761666
20
62.749999999999829
42
0.33453033350941097
10
122.36371453172238
20
64.198275862068797
42
-0.25849288187209429
10
125.96172413793093
20
67.796285468277304
42
0.33453033350940875
0
CIRCLE
5
156
100
AcDbEntity
8
0
100
AcDbCircle
10
127.40999999999985
20
62.749999999999808
30
0
40
1.25
210
0
220
-0
230
1
0
CIRCLE
5
157
100
AcDbEntity
8
0
100
AcDbCircle
10
127.41000000000035
20
111.74999999999967
30
0
40
1.25
210
0
220
-0
230
1
0
CIRCLE
5
158
100
AcDbEntity
8
0
100
AcDbCircle
10
69.410000000000039
20
62.749999999999901
30
0
40
1.25
210
0
220
-0
230
1
0
CIRCLE
5
159
100
AcDbEntity
8
0
100
AcDbCircle
10
69.410000000000508
20
111.74999999999984
30
0
40
1.25
210
0
220
-0
230
1
0
ENDSEC
0
SECTION
2
OBJECTS
0
DICTIONARY
5
C
100
AcDbDictionary
3
ACAD_GROUP
350
D
3
ACAD_MLINESTYLE
350
17
0
DICTIONARY
5
D
100
AcDbDictionary
0
DICTIONARY
5
1A
330
C
100
AcDbDictionary
0
DICTIONARY
5
17
100
AcDbDictionary
0
ENDSEC
0
EOF
