0
SECTION
2
HEADER
9
$INSUNITS
70
4
9
$ACADVER
1
AC1014
9
$HANDSEED
5
FFFF
0
ENDSEC
0
SECTION
2
TABLES
0
TABLE
2
VPORT
5
8
100
AcDbSymbolTable
0
ENDTAB
0
TABLE
2
LTYPE
5
5
100
AcDbSymbolTable
0
LTYPE
5
14
100
AcDbSymbolTableRecord
100
AcDbLinetypeTableRecord
2
BYBLOCK
70
0
0
LTYPE
5
15
100
AcDbSymbolTableRecord
100
AcDbLinetypeTableRecord
2
BYLAYER
70
0
0
ENDTAB
0
TABLE
2
LAYER
5
2
100
AcDbSymbolTable
70
2
0
LAYER
5
50
100
AcDbSymbolTableRecord
100
AcDbLayerTableRecord
2
0
70
0
6
CONTINUOUS
0
ENDTAB
0
TABLE
2
STYLE
5
3
100
AcDbSymbolTable
70
1
0
STYLE
5
11
100
AcDbSymbolTableRecord
100
AcDbTextStyleTableRecord
2
STANDARD
70
0
0
ENDTAB
0
TABLE
2
VIEW
5
6
100
AcDbSymbolTable
70
0
0
ENDTAB
0
TABLE
2
UCS
5
7
100
AcDbSymbolTable
70
0
0
ENDTAB
0
TABLE
2
APPID
5
9
100
AcDbSymbolTable
70
2
0
APPID
5
12
100
AcDbSymbolTableRecord
100
AcDbRegAppTableRecord
2
ACAD
70
0
0
ENDTAB
0
TABLE
2
DIMSTYLE
5
A
100
AcDbSymbolTable
70
1
0
ENDTAB
0
TABLE
2
BLOCK_RECORD
5
1
100
AcDbSymbolTable
70
1
0
BLOCK_RECORD
5
1F
100
AcDbSymbolTableRecord
100
AcDbBlockTableRecord
2
*MODEL_SPACE
0
BLOCK_RECORD
5
1B
100
AcDbSymbolTableRecord
100
AcDbBlockTableRecord
2
*PAPER_SPACE
0
ENDTAB
0
ENDSEC
0
SECTION
2
BLOCKS
0
BLOCK
5
20
100
AcDbEntity
100
AcDbBlockBegin
2
*MODEL_SPACE
0
ENDBLK
5
21
100
AcDbEntity
100
AcDbBlockEnd
0
BLOCK
5
1C
100
AcDbEntity
100
AcDbBlockBegin
2
*PAPER_SPACE
0
ENDBLK
5
1D
100
AcDbEntity
100
AcDbBlockEnd
0
ENDSEC
0
SECTION
2
ENTITIES
0
LWPOLYLINE
5
100
100
AcDbEntity
8
0
100
AcDbPolyline
90
4
70
1
43
0.0
10
52.959999084472678
20
-7.9500002861023047
42
-0.99999999999999989
10
50.959999084472685
20
-7.9500002861022958
10
50.959999084472685
20
-3.9500002861022852
42
-0.99999999999999989
10
52.959999084472678
20
-3.950000286102294
0
LWPOLYLINE
5
101
100
AcDbEntity
8
0
100
AcDbPolyline
90
4
70
1
43
0.0
10
58.959999084472685
20
-7.9500002861023003
42
-0.99999999999999989
10
56.959999084472692
20
-7.9500002861022958
10
56.959999084472692
20
-3.9500002861022896
42
-0.99999999999999989
10
58.959999084472685
20
-3.950000286102294
0
LWPOLYLINE
5
102
100
AcDbEntity
8
0
100
AcDbPolyline
90
4
70
1
43
0.0
10
70.959999084472685
20
-7.950000286102302
42
-0.99999999999999989
10
68.959999084472685
20
-7.9500002861022958
10
68.959999084472685
20
-3.9500002861022878
42
-0.99999999999999989
10
70.959999084472685
20
-3.950000286102294
0
LWPOLYLINE
5
103
100
AcDbEntity
8
0
100
AcDbPolyline
90
4
70
1
43
0.0
10
46.959999084472685
20
-7.9500002861023047
42
-0.99999999999999989
10
44.959999084472685
20
-7.9500002861022958
10
44.959999084472685
20
-3.9500002861022852
42
-0.99999999999999989
10
46.959999084472685
20
-3.950000286102294
0
LWPOLYLINE
5
104
100
AcDbEntity
8
0
100
AcDbPolyline
90
4
70
1
43
0.0
10
64.959999084472685
20
-7.9500002861023003
42
-0.99999999999999989
10
62.959999084472699
20
-7.9500002861022958
10
62.959999084472699
20
-3.9500002861022896
42
-0.99999999999999989
10
64.959999084472685
20
-3.950000286102294
0
LWPOLYLINE
5
105
100
AcDbEntity
8
0
100
AcDbPolyline
90
4
70
1
43
0.0
10
88.959999084472685
20
-7.950000286102318
42
-0.99999999999999989
10
86.959999084472699
20
-7.9500002861022958
10
86.959999084472699
20
-3.9500002861022701
42
-0.99999999999999989
10
88.959999084472685
20
-3.950000286102294
0
LWPOLYLINE
5
106
100
AcDbEntity
8
0
100
AcDbPolyline
90
4
70
1
43
0.0
10
94.959999084472685
20
-7.9500002861022825
42
-0.99999999999999989
10
92.959999084472699
20
-7.9500002861022958
10
92.959999084472699
20
-3.9500002861023074
42
-0.99999999999999989
10
94.959999084472685
20
-3.950000286102294
0
LWPOLYLINE
5
107
100
AcDbEntity
8
0
100
AcDbPolyline
90
4
70
1
43
0.0
10
106.95999908447268
20
-7.9500002861022869
42
-0.99999999999999989
10
104.95999908447268
20
-7.9500002861022958
10
104.95999908447268
20
-3.9500002861023029
42
-0.99999999999999989
10
106.95999908447268
20
-3.950000286102294
0
LWPOLYLINE
5
108
100
AcDbEntity
8
0
100
AcDbPolyline
90
4
70
1
43
0.0
10
100.95999908447268
20
-7.9500002861023225
42
-0.99999999999999989
10
98.959999084472685
20
-7.9500002861022958
10
98.959999084472685
20
-3.9500002861022674
42
-0.99999999999999989
10
100.95999908447268
20
-3.950000286102294
0
LWPOLYLINE
5
109
100
AcDbEntity
8
0
100
AcDbPolyline
90
4
70
1
43
0.0
10
76.959999084472685
20
-7.9500002861023003
42
-0.99999999999999989
10
74.959999084472699
20
-7.9500002861022958
10
74.959999084472699
20
-3.9500002861022896
42
-0.99999999999999989
10
76.959999084472685
20
-3.950000286102294
0
LWPOLYLINE
5
110
100
AcDbEntity
8
0
100
AcDbPolyline
90
4
70
1
43
0.0
10
112.9599990844727
20
-7.9500002861022869
42
-0.99999999999999989
10
110.9599990844727
20
-7.9500002861022958
10
110.9599990844727
20
-3.9500002861023029
42
-0.99999999999999989
10
112.9599990844727
20
-3.950000286102294
0
LWPOLYLINE
5
111
100
AcDbEntity
8
0
100
AcDbPolyline
90
4
70
1
43
0.0
10
80.959999084472699
20
-3.9500002861023065
42
-0.99999999999999989
10
82.959999084472699
20
-3.950000286102294
10
82.959999084472699
20
-7.9500002861022825
42
-0.99999999999999989
10
80.959999084472699
20
-7.9500002861022958
0
LWPOLYLINE
5
112
100
AcDbEntity
8
0
100
AcDbPolyline
90
20
70
1
43
0.0
10
58.959999084472628
20
2.2499997138977044
10
98.959999084472713
20
2.2499997138977044
10
98.959999084472685
20
-0.9500002861023138
10
156.95999908447271
20
-0.95000028610232268
10
156.95999908447271
20
2.2499997138977044
10
175.95999908447268
20
2.2499997138977035
10
175.95999908447268
20
-14.150000286102298
10
156.95999908447271
20
-14.150000286102298
10
156.95999908447271
20
-10.950000286102293
10
98.959999084472713
20
-10.950000286102295
10
98.959999084472713
20
-14.150000286102298
10
58.959999084472685
20
-14.150000286102294
10
58.95999908447267
20
-10.950000286102297
10
0.95999908447268467
20
-10.950000286102295
10
0.95999908447268467
20
-14.150000286102298
10
-18.040000915527337
20
-14.150000286102298
10
-18.040000915527337
20
2.2499997138977044
10
0.95999908447268467
20
2.2499997138977044
10
0.95999908447268467
20
-0.95000028610229603
10
58.959999084472656
20
-0.95000028610230713
0
ENDSEC
0
SECTION
2
OBJECTS
0
DICTIONARY
5
C
100
AcDbDictionary
3
ACAD_GROUP
350
D
3
ACAD_MLINESTYLE
350
17
0
DICTIONARY
5
D
100
AcDbDictionary
0
DICTIONARY
5
1A
330
C
100
AcDbDictionary
0
DICTIONARY
5
17
100
AcDbDictionary
0
ENDSEC
0
EOF
