<?xml version="1.0" encoding="utf-8"?>
<!-- Generator: Adobe Illustrator 24.1.2, SVG Export Plug-In . SVG Version: 6.00 Build 0)  -->
<svg version="1.1" id="Layer_1" xmlns="http://www.w3.org/2000/svg" xmlns:xlink="http://www.w3.org/1999/xlink" x="0px" y="0px"
	 viewBox="0 0 612 792" style="enable-background:new 0 0 612 792;" xml:space="preserve">
<style type="text/css">
	.st0{fill:none;stroke:#000000;stroke-width:6.000000e-02;stroke-miterlimit:10;}
	.st1{fill:#FFFFFF;stroke:#000000;stroke-width:6.000000e-02;stroke-miterlimit:10;}
</style>
<polygon class="st0" points="159.8,602.7 429.3,602.7 429.3,243 159.8,243 "/>
<path class="st0" d="M448,611.8l-0.3,0.1l-0.3,0.2H447l-0.6,0.2H406H179.4l-2.6-1.9h-31.2l-0.3-0.1l-0.3-0.2h-1.2v-378l0.3-0.4
	l0.3-0.6v-0.9h302.7c0.7,0.2,0.8,0.4,1.4,0.8l0.2,0.3h1.4v380.5H448z"/>
<path class="st0" d="M147.2,609.7v1.8l0,0l2.4,4.4l0.3,0.4c1.8,2.8,6.4,1.7,6.7-1.7l0.1-0.5v-4.2"/>
<path class="st0" d="M431,612.3v0.6l0,0l0.1,0.1v0.2l0.1,0.1l7,6.9l0.2,0.3c2.3,1.9,5.6,0.4,6.1-2.5v-0.4l0,0v-5.3"/>
<path class="st0" d="M431.6,230.2v-0.8l0.1-0.1l0,0l5.7-5.7l0,0l0.4-0.3c2.2-1.9,5.9-0.4,6,2.5l0.1,0.4v4"/>
<path class="st0" d="M143.8,235.5h-4h-0.4c-2.9,0.4-4.4,3.7-2.5,6.1l0.3,0.3l0,0l5.7,5.7l0.1,0.1l0.1,0.1h0.7"/>
<circle class="st1" cx="139.9" cy="239.2" r="2.2"/>
<circle class="st1" cx="153" cy="614.1" r="2.2"/>
<circle class="st1" cx="440.8" cy="617.6" r="2.2"/>
<circle class="st1" cx="440.1" cy="226.2" r="2.2"/>
</svg>
