<?xml version="1.0" encoding="utf-8"?>
<!-- Generator: Adobe Illustrator 24.0.3, SVG Export Plug-In . SVG Version: 6.00 Build 0)  -->
<svg version="1.1" id="Layer_1" xmlns="http://www.w3.org/2000/svg" xmlns:xlink="http://www.w3.org/1999/xlink" x="0px" y="0px"
	 viewBox="0 0 612 792" style="enable-background:new 0 0 612 792;" xml:space="preserve">
<style type="text/css">
	.st0{fill:none;}
	.st1{fill:none;stroke:#000000;stroke-width:6.000000e-02;stroke-miterlimit:10;}
	.st2{fill:none;stroke:#555555;stroke-width:6.000000e-02;stroke-miterlimit:10;}
	.st3{fill:none;stroke:#007A00;stroke-width:6.000000e-02;stroke-miterlimit:10;}
</style>
<rect class="st0" width="612" height="792"/>
<line class="st1" x1="434.6" y1="238.7" x2="435.1" y2="239.2"/>
<rect class="st0" width="612" height="792"/>
<line class="st2" x1="143.3" y1="247.7" x2="143.3" y2="235.5"/>
<rect class="st0" width="612" height="792"/>
<line class="st1" x1="143.9" y1="232.6" x2="143.9" y2="235.5"/>
<rect class="st0" width="612" height="792"/>
<line class="st1" x1="143.9" y1="247.7" x2="143.9" y2="250.2"/>
<rect class="st0" width="612" height="792"/>
<line class="st2" x1="143.9" y1="610.1" x2="143.9" y2="250.2"/>
<rect class="st0" width="612" height="792"/>
<line class="st1" x1="144.1" y1="250" x2="144.1" y2="248.2"/>
<rect class="st0" width="612" height="792"/>
<line class="st1" x1="144.1" y1="234.9" x2="144.1" y2="232.7"/>
<rect class="st0" width="612" height="792"/>
<line class="st1" x1="144.1" y1="249.9" x2="144.1" y2="248.3"/>
<rect class="st0" width="612" height="792"/>
<line class="st1" x1="144.1" y1="232.8" x2="144.1" y2="234.9"/>
<rect class="st0" width="612" height="792"/>
<polyline class="st1" points="144.2,250 144.2,250.2 144.2,249.9 "/>
<rect class="st0" width="612" height="792"/>
<line class="st1" x1="144.6" y1="250.2" x2="144.6" y2="232.5"/>
<rect class="st0" width="612" height="792"/>
<line class="st2" x1="146.3" y1="610.4" x2="146.3" y2="610.4"/>
<rect class="st0" width="612" height="792"/>
<line class="st1" x1="448" y1="288.5" x2="448.8" y2="289.3"/>
<rect class="st0" width="612" height="792"/>
<line class="st1" x1="154.3" y1="606.4" x2="154.3" y2="610.1"/>
<rect class="st0" width="612" height="792"/>
<line class="st1" x1="156.1" y1="230.6" x2="156.1" y2="610.1"/>
<rect class="st0" width="612" height="792"/>
<line class="st2" x1="157.6" y1="610.4" x2="157.6" y2="610.4"/>
<rect class="st0" width="612" height="792"/>
<line class="st2" x1="157.8" y1="610.4" x2="157.8" y2="610.4"/>
<rect class="st0" width="612" height="792"/>
<line class="st1" x1="158.5" y1="610.6" x2="158.5" y2="610.1"/>
<rect class="st0" width="612" height="792"/>
<line class="st1" x1="175.9" y1="610.4" x2="175.9" y2="610.6"/>
<rect class="st0" width="612" height="792"/>
<line class="st3" x1="175.9" y1="610.1" x2="175.9" y2="610.4"/>
<rect class="st0" width="612" height="792"/>
<line class="st1" x1="184.4" y1="612.3" x2="184.4" y2="612.1"/>
<rect class="st0" width="612" height="792"/>
<line class="st3" x1="184.4" y1="612.1" x2="184.4" y2="610.1"/>
<rect class="st0" width="612" height="792"/>
<line class="st2" x1="431.6" y1="229.7" x2="443.9" y2="229.7"/>
<rect class="st0" width="612" height="792"/>
<polyline class="st1" points="430.9,230.2 144.4,230.2 144.4,248.2 "/>
<rect class="st0" width="612" height="792"/>
<line class="st1" x1="430.9" y1="230.2" x2="431.5" y2="230.2"/>
<rect class="st0" width="612" height="792"/>
<line class="st1" x1="443.9" y1="230.2" x2="446.7" y2="230.2"/>
<rect class="st0" width="612" height="792"/>
<line class="st1" x1="431.1" y1="230.3" x2="430.9" y2="230.3"/>
<rect class="st0" width="612" height="792"/>
<line class="st1" x1="444.8" y1="230.3" x2="446.6" y2="230.3"/>
<rect class="st0" width="612" height="792"/>
<line class="st2" x1="144.4" y1="230.3" x2="430.9" y2="230.3"/>
<rect class="st0" width="612" height="792"/>
<line class="st1" x1="446.7" y1="230.5" x2="444.8" y2="230.5"/>
<rect class="st0" width="612" height="792"/>
<line class="st1" x1="146.5" y1="230.6" x2="156.1" y2="230.6"/>
<rect class="st0" width="612" height="792"/>
<line class="st1" x1="444.8" y1="230.8" x2="431.1" y2="230.8"/>
<rect class="st0" width="612" height="792"/>
<line class="st1" x1="430.9" y1="231" x2="444.8" y2="231"/>
<rect class="st0" width="612" height="792"/>
<line class="st1" x1="433.1" y1="231.3" x2="450.1" y2="231.3"/>
<rect class="st0" width="612" height="792"/>
<line class="st2" x1="143.9" y1="234.4" x2="144.1" y2="234.4"/>
<rect class="st0" width="612" height="792"/>
<line class="st1" x1="144.4" y1="234.9" x2="144.1" y2="234.9"/>
<rect class="st0" width="612" height="792"/>
<line class="st1" x1="434.6" y1="237.7" x2="433.1" y2="237.7"/>
<rect class="st0" width="612" height="792"/>
<line class="st1" x1="435.1" y1="238.7" x2="434.6" y2="238.7"/>
<rect class="st0" width="612" height="792"/>
<line class="st1" x1="433.9" y1="239.2" x2="144.4" y2="239.2"/>
<rect class="st0" width="612" height="792"/>
<line class="st1" x1="433.1" y1="240.2" x2="434.6" y2="240.2"/>
<rect class="st0" width="612" height="792"/>
<line class="st1" x1="143.3" y1="247.7" x2="144.4" y2="247.7"/>
<rect class="st0" width="612" height="792"/>
<line class="st1" x1="144.6" y1="248.2" x2="144.1" y2="248.2"/>
<rect class="st0" width="612" height="792"/>
<line class="st1" x1="144.6" y1="248.3" x2="144.1" y2="248.3"/>
<rect class="st0" width="612" height="792"/>
<line class="st2" x1="143.9" y1="248.9" x2="144.1" y2="248.9"/>
<rect class="st0" width="612" height="792"/>
<line class="st1" x1="144.2" y1="249.9" x2="144.1" y2="249.9"/>
<rect class="st0" width="612" height="792"/>
<line class="st2" x1="143.9" y1="249.9" x2="144.1" y2="249.9"/>
<rect class="st0" width="612" height="792"/>
<line class="st1" x1="144.1" y1="250" x2="144.2" y2="250"/>
<rect class="st0" width="612" height="792"/>
<line class="st1" x1="143.8" y1="250.2" x2="144.6" y2="250.2"/>
<rect class="st0" width="612" height="792"/>
<line class="st1" x1="450.1" y1="285.4" x2="448.5" y2="285.4"/>
<rect class="st0" width="612" height="792"/>
<line class="st2" x1="449" y1="285.7" x2="448.1" y2="285.7"/>
<rect class="st0" width="612" height="792"/>
<line class="st1" x1="448.7" y1="286.2" x2="448" y2="286.2"/>
<rect class="st0" width="612" height="792"/>
<line class="st2" x1="449.3" y1="287.6" x2="449.5" y2="287.6"/>
<rect class="st0" width="612" height="792"/>
<rect x="450.1" y="392.3" width="0.1" height="0.1"/>
<rect class="st0" width="612" height="792"/>
<rect x="450.1" y="453.4" width="0.1" height="0.1"/>
<rect class="st0" width="612" height="792"/>
<line class="st1" x1="448.2" y1="396.2" x2="448.8" y2="396.8"/>
<rect class="st0" width="612" height="792"/>
<line class="st1" x1="450.1" y1="345.4" x2="448.5" y2="345.4"/>
<rect class="st0" width="612" height="792"/>
<line class="st1" x1="449" y1="345.7" x2="448" y2="345.7"/>
<rect class="st0" width="612" height="792"/>
<line class="st1" x1="449" y1="345.8" x2="448" y2="345.8"/>
<rect class="st0" width="612" height="792"/>
<line class="st1" x1="449.9" y1="346" x2="450.1" y2="346"/>
<rect class="st0" width="612" height="792"/>
<line class="st1" x1="448" y1="346.3" x2="449" y2="346.3"/>
<rect class="st0" width="612" height="792"/>
<line class="st1" x1="448.5" y1="346.9" x2="450.1" y2="346.9"/>
<rect class="st0" width="612" height="792"/>
<line class="st1" x1="448.2" y1="503.5" x2="448.8" y2="504.1"/>
<rect class="st0" width="612" height="792"/>
<line class="st1" x1="450.1" y1="395.3" x2="448.8" y2="395.3"/>
<rect class="st0" width="612" height="792"/>
<line class="st1" x1="448.8" y1="396.8" x2="450.1" y2="396.8"/>
<rect class="st0" width="612" height="792"/>
<line class="st1" x1="450.1" y1="449.8" x2="448.8" y2="449.8"/>
<rect class="st0" width="612" height="792"/>
<line class="st1" x1="448.8" y1="451.3" x2="450.1" y2="451.3"/>
<rect class="st0" width="612" height="792"/>
<line class="st1" x1="429.2" y1="611.9" x2="429.2" y2="612.3"/>
<rect class="st0" width="612" height="792"/>
<line class="st2" x1="430" y1="612.2" x2="430" y2="612.1"/>
<rect class="st0" width="612" height="792"/>
<line class="st2" x1="430.1" y1="612.2" x2="430.1" y2="612.1"/>
<rect class="st0" width="612" height="792"/>
<line class="st1" x1="430.9" y1="230.2" x2="430.9" y2="231"/>
<rect class="st0" width="612" height="792"/>
<line class="st1" x1="431.1" y1="231" x2="431.1" y2="230.3"/>
<rect class="st0" width="612" height="792"/>
<line class="st1" x1="431.6" y1="229.7" x2="431.6" y2="230.6"/>
<rect class="st0" width="612" height="792"/>
<polyline class="st1" points="433.1,611.8 433.1,608.3 433.1,239.2 "/>
<rect class="st0" width="612" height="792"/>
<line class="st1" x1="433.1" y1="237.7" x2="433.1" y2="231.3"/>
<rect class="st0" width="612" height="792"/>
<line class="st1" x1="433.9" y1="239.2" x2="433.9" y2="231"/>
<rect class="st0" width="612" height="792"/>
<line class="st1" x1="434.5" y1="606.4" x2="434.5" y2="611.9"/>
<rect class="st0" width="612" height="792"/>
<line class="st1" x1="435.1" y1="607" x2="435.1" y2="606.5"/>
<rect class="st0" width="612" height="792"/>
<line class="st1" x1="435.1" y1="239.2" x2="435.1" y2="238.7"/>
<rect class="st0" width="612" height="792"/>
<line class="st1" x1="444.8" y1="230.3" x2="444.8" y2="231"/>
<rect class="st0" width="612" height="792"/>
<line class="st1" x1="444.8" y1="230.5" x2="444.8" y2="231"/>
<rect class="st0" width="612" height="792"/>
<line class="st2" x1="445.7" y1="612.2" x2="445.7" y2="612.1"/>
<rect class="st0" width="612" height="792"/>
<line class="st2" x1="445.7" y1="230.3" x2="445.7" y2="230.2"/>
<rect class="st0" width="612" height="792"/>
<line class="st1" x1="448" y1="286" x2="448" y2="288.8"/>
<rect class="st0" width="612" height="792"/>
<line class="st1" x1="448" y1="346" x2="448" y2="346.3"/>
<rect class="st0" width="612" height="792"/>
<line class="st2" x1="448" y1="345.8" x2="448" y2="346.3"/>
<rect class="st0" width="612" height="792"/>
<line class="st1" x1="448.2" y1="395.8" x2="448.2" y2="396.2"/>
<rect class="st0" width="612" height="792"/>
<line class="st1" x1="448.2" y1="450.4" x2="448.2" y2="450.8"/>
<rect class="st0" width="612" height="792"/>
<line class="st1" x1="448.2" y1="503.3" x2="448.2" y2="503.7"/>
<rect class="st0" width="612" height="792"/>
<line class="st1" x1="448.2" y1="558.2" x2="448.2" y2="558.6"/>
<rect class="st0" width="612" height="792"/>
<line class="st1" x1="448.3" y1="346.3" x2="448.3" y2="345.8"/>
<rect class="st0" width="612" height="792"/>
<line class="st3" x1="448.5" y1="346.3" x2="448.5" y2="345.8"/>
<rect class="st0" width="612" height="792"/>
<line class="st1" x1="448.5" y1="345.8" x2="448.5" y2="346.3"/>
<rect class="st0" width="612" height="792"/>
<line class="st2" x1="448.5" y1="346.3" x2="448.5" y2="346.9"/>
<rect class="st0" width="612" height="792"/>
<line class="st2" x1="448.7" y1="285.4" x2="448.7" y2="289.3"/>
<rect class="st0" width="612" height="792"/>
<line class="st2" x1="448.7" y1="345.4" x2="448.7" y2="345.8"/>
<rect class="st0" width="612" height="792"/>
<line class="st2" x1="448.7" y1="395.3" x2="448.7" y2="396.7"/>
<rect class="st0" width="612" height="792"/>
<line class="st2" x1="448.7" y1="449.8" x2="448.7" y2="451.3"/>
<rect class="st0" width="612" height="792"/>
<line class="st2" x1="448.7" y1="502.7" x2="448.7" y2="504"/>
<rect class="st0" width="612" height="792"/>
<line class="st2" x1="448.7" y1="557.7" x2="448.7" y2="559.2"/>
<rect class="st0" width="612" height="792"/>
<rect x="449.3" y="345.4" width="0.1" height="0.1"/>
<rect class="st0" width="612" height="792"/>
<line class="st1" x1="449" y1="286" x2="449" y2="289.3"/>
<rect class="st0" width="612" height="792"/>
<line class="st1" x1="449" y1="345.4" x2="449" y2="345.7"/>
<rect class="st0" width="612" height="792"/>
<line class="st1" x1="449" y1="395.3" x2="449" y2="396.8"/>
<rect class="st0" width="612" height="792"/>
<line class="st1" x1="449" y1="449.8" x2="449" y2="451.3"/>
<rect class="st0" width="612" height="792"/>
<line class="st1" x1="449" y1="502.7" x2="449" y2="504.1"/>
<rect class="st0" width="612" height="792"/>
<line class="st1" x1="449" y1="557.7" x2="449" y2="559.2"/>
<rect class="st0" width="612" height="792"/>
<line class="st1" x1="449" y1="559.2" x2="449" y2="557.7"/>
<rect class="st0" width="612" height="792"/>
<line class="st1" x1="449" y1="504.1" x2="449" y2="502.7"/>
<rect class="st0" width="612" height="792"/>
<line class="st1" x1="449" y1="451.3" x2="449" y2="449.8"/>
<rect class="st0" width="612" height="792"/>
<line class="st1" x1="449" y1="396.8" x2="449" y2="395.3"/>
<rect class="st0" width="612" height="792"/>
<line class="st1" x1="449" y1="289.3" x2="449" y2="285.4"/>
<rect class="st0" width="612" height="792"/>
<line class="st1" x1="449" y1="345.4" x2="449" y2="346.9"/>
<rect class="st0" width="612" height="792"/>
<line class="st1" x1="449.3" y1="559.2" x2="449.3" y2="557.7"/>
<rect class="st0" width="612" height="792"/>
<line class="st1" x1="449.3" y1="504.1" x2="449.3" y2="502.7"/>
<rect class="st0" width="612" height="792"/>
<line class="st1" x1="449.3" y1="451.3" x2="449.3" y2="449.8"/>
<rect class="st0" width="612" height="792"/>
<line class="st1" x1="449.3" y1="396.8" x2="449.3" y2="395.3"/>
<rect class="st0" width="612" height="792"/>
<line class="st1" x1="449.3" y1="289.3" x2="449.3" y2="287.9"/>
<rect class="st0" width="612" height="792"/>
<line class="st1" x1="449.5" y1="285.4" x2="449.5" y2="288.9"/>
<rect class="st0" width="612" height="792"/>
<line class="st1" x1="449.5" y1="345.4" x2="449.5" y2="345.8"/>
<rect class="st0" width="612" height="792"/>
<line class="st1" x1="449.5" y1="395.3" x2="449.5" y2="396.3"/>
<rect class="st0" width="612" height="792"/>
<line class="st1" x1="449.5" y1="449.8" x2="449.5" y2="451.3"/>
<rect class="st0" width="612" height="792"/>
<line class="st1" x1="449.8" y1="503.9" x2="449.8" y2="502.7"/>
<rect class="st0" width="612" height="792"/>
<line class="st1" x1="449.8" y1="451.3" x2="449.8" y2="449.8"/>
<rect class="st0" width="612" height="792"/>
<line class="st1" x1="449.8" y1="396.6" x2="449.8" y2="395.3"/>
<rect class="st0" width="612" height="792"/>
<line class="st1" x1="449.8" y1="346" x2="449.8" y2="345.4"/>
<rect class="st0" width="612" height="792"/>
<line class="st2" x1="449.9" y1="231.3" x2="449.9" y2="285.4"/>
<rect class="st0" width="612" height="792"/>
<line class="st2" x1="449.9" y1="289.3" x2="449.9" y2="345.4"/>
<rect class="st0" width="612" height="792"/>
<line class="st2" x1="449.9" y1="346.9" x2="449.9" y2="395.3"/>
<rect class="st0" width="612" height="792"/>
<line class="st2" x1="449.9" y1="396.8" x2="449.9" y2="449.8"/>
<rect class="st0" width="612" height="792"/>
<line class="st2" x1="449.9" y1="451.3" x2="449.9" y2="502.7"/>
<rect class="st0" width="612" height="792"/>
<line class="st2" x1="449.9" y1="504.2" x2="449.9" y2="557.7"/>
<rect class="st0" width="612" height="792"/>
<line class="st2" x1="449.9" y1="559.2" x2="449.9" y2="611.8"/>
<rect class="st0" width="612" height="792"/>
<line class="st2" x1="450" y1="504.1" x2="450" y2="504.2"/>
<rect class="st0" width="612" height="792"/>
<rect x="450.1" y="499.7" width="0.1" height="0.1"/>
<rect class="st0" width="612" height="792"/>
<line class="st1" x1="450.1" y1="231.3" x2="450.1" y2="285.4"/>
<rect class="st0" width="612" height="792"/>
<line class="st1" x1="450.1" y1="289.3" x2="450.1" y2="345.4"/>
<rect class="st0" width="612" height="792"/>
<line class="st1" x1="450.1" y1="346.9" x2="450.1" y2="395.3"/>
<rect class="st0" width="612" height="792"/>
<line class="st1" x1="450.1" y1="396.8" x2="450.1" y2="449.8"/>
<rect class="st0" width="612" height="792"/>
<line class="st1" x1="450.1" y1="451.3" x2="450.1" y2="502.7"/>
<rect class="st0" width="612" height="792"/>
<line class="st1" x1="450.1" y1="504.2" x2="450.1" y2="557.7"/>
<rect class="st0" width="612" height="792"/>
<line class="st1" x1="450.1" y1="559.2" x2="450.1" y2="611.8"/>
<rect class="st0" width="612" height="792"/>
<line class="st1" x1="450.5" y1="346.3" x2="450.5" y2="391.9"/>
<rect class="st0" width="612" height="792"/>
<line class="st1" x1="450.5" y1="453.7" x2="450.5" y2="499.3"/>
<rect class="st0" width="612" height="792"/>
<line class="st1" x1="450.1" y1="502.7" x2="448.8" y2="502.7"/>
<rect class="st0" width="612" height="792"/>
<line class="st1" x1="448.8" y1="504.2" x2="450.1" y2="504.2"/>
<rect class="st0" width="612" height="792"/>
<line class="st1" x1="450.1" y1="557.7" x2="448.8" y2="557.7"/>
<rect class="st0" width="612" height="792"/>
<line class="st1" x1="448.8" y1="559.2" x2="450.1" y2="559.2"/>
<rect class="st0" width="612" height="792"/>
<polygon class="st1" points="159.8,602.7 429.3,602.7 429.3,243 159.8,243 "/>
<rect class="st0" width="612" height="792"/>
<line class="st1" x1="154.3" y1="606.4" x2="434.5" y2="606.4"/>
<rect class="st0" width="612" height="792"/>
<line class="st1" x1="434.6" y1="607" x2="435.1" y2="607"/>
<rect class="st0" width="612" height="792"/>
<polyline class="st1" points="156.1,610.1 143.8,610.1 143.8,250.2 "/>
<rect class="st0" width="612" height="792"/>
<line class="st3" x1="184.4" y1="610.1" x2="175.9" y2="610.1"/>
<rect class="st0" width="612" height="792"/>
<line class="st1" x1="158.5" y1="610.1" x2="154.3" y2="610.1"/>
<rect class="st0" width="612" height="792"/>
<line class="st1" x1="146.3" y1="610.3" x2="158.5" y2="610.3"/>
<rect class="st0" width="612" height="792"/>
<line class="st2" x1="175.9" y1="610.4" x2="158.5" y2="610.4"/>
<rect class="st0" width="612" height="792"/>
<line class="st1" x1="158.5" y1="610.4" x2="146.5" y2="610.4"/>
<rect class="st0" width="612" height="792"/>
<line class="st3" x1="175.9" y1="610.4" x2="177" y2="610.4"/>
<rect class="st0" width="612" height="792"/>
<line class="st1" x1="146.3" y1="610.4" x2="147.1" y2="610.4"/>
<rect class="st0" width="612" height="792"/>
<line class="st1" x1="156.8" y1="610.4" x2="158.5" y2="610.4"/>
<rect class="st0" width="612" height="792"/>
<line class="st1" x1="175.9" y1="610.4" x2="176.5" y2="610.4"/>
<rect class="st0" width="612" height="792"/>
<line class="st1" x1="175.9" y1="610.6" x2="158.5" y2="610.6"/>
<rect class="st0" width="612" height="792"/>
<line class="st2" x1="156.8" y1="611" x2="147.2" y2="611"/>
<rect class="st0" width="612" height="792"/>
<line class="st1" x1="450.1" y1="611.8" x2="433.1" y2="611.8"/>
<rect class="st0" width="612" height="792"/>
<line class="st1" x1="434.5" y1="611.9" x2="429.2" y2="611.9"/>
<rect class="st0" width="612" height="792"/>
<line class="st1" x1="429.2" y1="612.1" x2="446.7" y2="612.1"/>
<rect class="st0" width="612" height="792"/>
<polyline class="st2" points="429.2,612.1 411,612.1 184.4,612.1 "/>
<rect class="st0" width="612" height="792"/>
<line class="st1" x1="446.6" y1="612.1" x2="429.2" y2="612.1"/>
<rect class="st0" width="612" height="792"/>
<line class="st3" x1="179.7" y1="612.1" x2="184.4" y2="612.1"/>
<rect class="st0" width="612" height="792"/>
<line class="st1" x1="446.7" y1="612.2" x2="444.6" y2="612.2"/>
<rect class="st0" width="612" height="792"/>
<line class="st1" x1="179.9" y1="612.2" x2="184.4" y2="612.2"/>
<rect class="st0" width="612" height="792"/>
<line class="st1" x1="429.2" y1="612.2" x2="431" y2="612.2"/>
<rect class="st0" width="612" height="792"/>
<polyline class="st1" points="429.2,612.3 411,612.3 184.4,612.3 "/>
<rect class="st0" width="612" height="792"/>
<line class="st2" x1="444.6" y1="612.7" x2="431" y2="612.7"/>
<rect class="st0" width="612" height="792"/>
<line class="st1" x1="177.6" y1="610.7" x2="178.5" y2="611.6"/>
<rect class="st0" width="612" height="792"/>
<line class="st3" x1="177.8" y1="610.7" x2="178.7" y2="611.6"/>
<rect class="st0" width="612" height="792"/>
<line class="st1" x1="435.1" y1="606.5" x2="434.6" y2="607"/>
<rect class="st0" width="612" height="792"/>
<line class="st1" x1="177.2" y1="610.7" x2="178.7" y2="611.8"/>
<rect class="st0" width="612" height="792"/>
<path class="st1" d="M146.5,230.6h-0.2c-0.9,0.1-1.4,0.7-1.6,1.5v0.4"/>
<rect class="st0" width="612" height="792"/>
<polyline class="st1" points="449.3,287.9 449.3,287.7 449.3,287.6 449.2,287.4 449,287.4 "/>
<rect class="st0" width="612" height="792"/>
<polyline class="st1" points="449.3,345.4 449.3,345.6 449.6,345.9 449.8,346 449.9,346 "/>
<rect class="st0" width="612" height="792"/>
<polyline class="st1" points="450.5,346.3 450.5,346.3 450.2,346 450.1,346 "/>
<rect class="st0" width="612" height="792"/>
<polyline class="st1" points="450.1,392.3 450.2,392.3 450.3,392.2 450.4,392.2 450.5,392 450.5,391.9 "/>
<rect class="st0" width="612" height="792"/>
<polyline class="st1" points="450.5,453.7 450.5,453.5 450.4,453.5 450.3,453.5 450.2,453.4 450.1,453.4 "/>
<polyline class="st1" points="450.1,499.7 450.2,499.7 450.5,499.4 450.5,499.3 "/>
<rect class="st0" width="612" height="792"/>
<polyline class="st1" points="449.3,288.4 449.5,288.6 449.5,288.8 449.5,289 449.7,289.1 449.9,289.2 450.1,289.3 450.3,289.3 "/>
<line class="st1" x1="450.2" y1="341.6" x2="450.1" y2="341.6"/>
<polyline class="st1" points="449.3,395.8 449.5,396 449.5,396.2 449.5,396.3 449.7,396.5 449.9,396.6 450.1,396.7 450.3,396.7 "/>
<line class="st1" x1="450.3" y1="556.4" x2="450.1" y2="556.4"/>
<polyline class="st1" points="448.5,285.4 448.4,285.5 448.2,285.5 448.1,285.7 448,285.7 448,285.9 448,286 "/>
<polyline class="st1" points="448,288.8 448,288.9 448,289 448.1,289.2 448.2,289.3 448.5,289.3 "/>
<polyline class="st1" points="448.5,345.4 448.4,345.4 448.2,345.5 448.1,345.6 448,345.7 448,345.8 448,346 "/>
<polyline class="st1" points="448,346.3 448,346.4 448,346.6 448.1,346.7 448.2,346.8 448.4,346.8 448.5,346.9 "/>
<polyline class="st1" points="448.2,396.2 448.2,396.3 448.3,396.5 448.5,396.7 448.6,396.7 448.8,396.8 "/>
<polyline class="st1" points="448.8,395.3 448.6,395.3 448.5,395.3 448.4,395.5 448.3,395.6 448.2,395.6 448.2,395.8 "/>
<polyline class="st1" points="448.8,449.8 448.6,449.8 448.5,449.9 448.4,450 448.3,450.1 448.2,450.2 448.2,450.4 "/>
<polyline class="st1" points="448.2,450.8 448.2,450.8 448.3,451 448.6,451.3 448.8,451.3 "/>
<polyline class="st1" points="448.2,503.7 448.2,503.8 448.3,504 448.4,504.1 448.5,504.2 448.6,504.2 448.8,504.2 "/>
<polyline class="st1" points="448.8,502.7 448.6,502.7 448.5,502.9 448.4,503 448.3,503 448.2,503.2 448.2,503.3 "/>
<polyline class="st1" points="448.8,557.7 448.6,557.7 448.5,557.8 448.4,557.9 448.3,557.9 448.2,558.1 448.2,558.2 "/>
<polyline class="st1" points="448.2,558.6 448.2,558.7 448.3,558.9 448.6,559.2 448.8,559.2 "/>
<path class="st1" d="M434.6,240.2h0.3l0.2-0.1l0.2-0.1l0.2-0.2l0.2-0.2l0.1-0.2l0.1-0.2v-0.5c-0.2-0.6-0.4-0.6-0.8-1h-0.2l-0.3-0.1"
	/>
<polyline class="st1" points="144.4,231.5 144.2,231.8 144.1,232.1 144.1,232.5 144.1,232.8 "/>
<polyline class="st1" points="145.4,610.1 145.7,610.1 146,610.3 146.3,610.3 "/>
<polyline class="st1" points="446.7,612.1 447,611.9 447.3,611.9 447.5,611.8 "/>
<polyline class="st1" points="448.4,231.3 448.2,231 448,230.8 447.7,230.6 447.4,230.5 447,230.5 446.7,230.5 "/>
<polyline class="st1" points="431.1,231 431.1,230.8 431,230.7 430.9,230.6 "/>
<polyline class="st1" points="448.7,286.2 448.9,286.1 449,286.1 449,286 449,285.8 "/>
<polyline class="st1" points="448.5,231.3 448.2,231 448,230.8 447.7,230.6 447.3,230.5 447,230.3 446.6,230.3 "/>
<polyline class="st1" points="144.4,231.5 144.2,231.7 144.1,232 144.1,232.4 144.1,232.7 "/>
<polyline class="st1" points="145.3,610.1 145.7,610.3 146.1,610.4 146.5,610.4 "/>
<polyline class="st1" points="177.6,610.7 177.4,610.6 177.2,610.4 177,610.4 176.8,610.4 "/>
<polyline class="st1" points="178.5,611.6 178.7,611.8 179,611.9 179.3,612.1 "/>
<polyline class="st1" points="446.6,612.1 447,612.1 447.4,611.9 447.8,611.8 "/>
<polyline class="st1" points="446.7,612.2 447,612.1 447.4,612.1 447.7,611.9 448,611.8 "/>
<path class="st1" d="M448.7,231.3l-0.2-0.3c-0.6-0.4-0.7-0.6-1.4-0.8h-0.3"/>
<polyline class="st1" points="144.4,231.1 144.1,231.7 143.9,232 143.9,232.3 143.9,232.6 "/>
<polyline class="st1" points="145,610.1 145.3,610.3 145.6,610.4 145.9,610.4 146.3,610.4 "/>
<polyline class="st1" points="178.7,611.8 179,611.9 179.3,612.1 179.6,612.1 179.9,612.2 "/>
<polyline class="st1" points="177.2,610.7 177.1,610.6 176.8,610.4 176.5,610.4 "/>
<path class="st1" d="M147.2,610.4v0.7v0.3l0,0l2.4,4.4l0.3,0.4c1.8,2.8,6.4,1.7,6.7-1.7l0.1-0.5v-3.7"/>
<path class="st1" d="M155.2,614.1v-0.3l-0.1-0.4c-0.8-2.2-3.9-2-4.3,0.4v0.6c0.5,2.3,3.4,2.6,4.3,0.4l0.1-0.4V614.1z"/>
<path class="st1" d="M431,612.1v0.8l0,0l0.1,0.1v0.2l0.1,0.1l7,6.9l0.2,0.3c2.3,1.9,5.6,0.4,6.1-2.5v-0.4l0,0v-5.5"/>
<path class="st1" d="M443,617.6v-0.3l-0.1-0.4c-0.6-2.2-4.1-1.9-4.3,0.4v0.5c0.2,2.3,3.6,2.7,4.3,0.4l0.1-0.4V617.6z"/>
<path class="st1" d="M431.6,229.7v-0.3l0.1-0.1l0,0l5.7-5.7l0,0l0.4-0.3c2.2-1.9,5.9-0.4,6,2.5l0.1,0.4v4.6"/>
<path class="st1" d="M144.4,235.5h-4.6h-0.4c-2.9,0.4-4.4,3.7-2.5,6.1l0.3,0.3l0,0l5.7,5.7l0.1,0.1l0.1,0.1h0.2"/>
<path class="st1" d="M442.3,226.2V226l-0.1-0.4c-0.6-2.2-4.1-2-4.3,0.4v0.5c0.3,2.3,3.5,2.6,4.3,0.4l0.1-0.4V226.2z"/>
<path class="st1" d="M142.1,239.2L142,239v-0.4c-0.8-2.2-3.9-2-4.3,0.4v0.5c0.2,2.3,3.7,2.5,4.3,0.4v-0.4L142.1,239.2z"/>
<polyline class="st3" points="177.8,610.7 177.6,610.6 177.4,610.4 177.2,610.4 177,610.4 "/>
<polyline class="st3" points="178.7,611.6 178.9,611.8 179.2,612.1 179.4,612.1 179.7,612.1 "/>
<rect x="443.9" y="230.8" width="0.1" height="0.1"/>
<rect x="156.8" y="610.4" width="0.1" height="0.1"/>
<rect x="431" y="612.1" width="0.1" height="0.1"/>
<polyline class="st1" points="147.1,610.4 147.1,610.4 147.1,610.6 147.2,610.6 147.2,611 "/>
<polyline class="st1" points="431.5,230.2 431.6,230.2 431.6,230.2 431.6,230 431.6,229.7 "/>
<line class="st1" x1="443.9" y1="230.2" x2="443.9" y2="230.2"/>
<polyline class="st1" points="431.6,230.6 431.6,230.7 431.6,230.8 431.5,230.8 "/>
</svg>
