0
SECTION
2
HEADER
9
$INSUNITS
70
4
9
$ACADVER
1
AC1014
9
$HANDSEED
5
FFFF
0
ENDSEC
0
SECTION
2
TABLES
0
TABLE
2
VPORT
5
8
100
AcDbSymbolTable
0
ENDTAB
0
TABLE
2
LTYPE
5
5
100
AcDbSymbolTable
0
LTYPE
5
14
100
AcDbSymbolTableRecord
100
AcDbLinetypeTableRecord
2
BYBLOCK
70
0
0
LTYPE
5
15
100
AcDbSymbolTableRecord
100
AcDbLinetypeTableRecord
2
BYLAYER
70
0
0
ENDTAB
0
TABLE
2
LAYER
5
2
100
AcDbSymbolTable
70
2
0
LAYER
5
50
100
AcDbSymbolTableRecord
100
AcDbLayerTableRecord
2
0
70
0
6
CONTINUOUS
0
ENDTAB
0
TABLE
2
STYLE
5
3
100
AcDbSymbolTable
70
1
0
STYLE
5
11
100
AcDbSymbolTableRecord
100
AcDbTextStyleTableRecord
2
STANDARD
70
0
0
ENDTAB
0
TABLE
2
VIEW
5
6
100
AcDbSymbolTable
70
0
0
ENDTAB
0
TABLE
2
UCS
5
7
100
AcDbSymbolTable
70
0
0
ENDTAB
0
TABLE
2
APPID
5
9
100
AcDbSymbolTable
70
2
0
APPID
5
12
100
AcDbSymbolTableRecord
100
AcDbRegAppTableRecord
2
ACAD
70
0
0
ENDTAB
0
TABLE
2
DIMSTYLE
5
A
100
AcDbSymbolTable
70
1
0
ENDTAB
0
TABLE
2
BLOCK_RECORD
5
1
100
AcDbSymbolTable
70
1
0
BLOCK_RECORD
5
1F
100
AcDbSymbolTableRecord
100
AcDbBlockTableRecord
2
*MODEL_SPACE
0
BLOCK_RECORD
5
1B
100
AcDbSymbolTableRecord
100
AcDbBlockTableRecord
2
*PAPER_SPACE
0
ENDTAB
0
ENDSEC
0
SECTION
2
BLOCKS
0
BLOCK
5
20
100
AcDbEntity
100
AcDbBlockBegin
2
*MODEL_SPACE
0
ENDBLK
5
21
100
AcDbEntity
100
AcDbBlockEnd
0
BLOCK
5
1C
100
AcDbEntity
100
AcDbBlockBegin
2
*PAPER_SPACE
0
ENDBLK
5
1D
100
AcDbEntity
100
AcDbBlockEnd
0
ENDSEC
0
SECTION
2
ENTITIES
0
LWPOLYLINE
5
100
100
AcDbEntity
8
0
100
AcDbPolyline
90
8
70
1
43
0.0
10
129.86936322842493
20
176.36768696722339
10
129.8693632284249
20
187.36768696722336
42
0.4142135623730977
10
127.86936322842487
20
189.36768696722336
10
67.869363228424874
20
189.36768696722336
42
0.41421356237309509
10
65.869363228424874
20
187.36768696722336
10
65.869363228424888
20
176.36768696722339
42
0.41421356237309892
10
67.869363228424916
20
174.36768696722339
10
127.86936322842493
20
174.36768696722339
42
0.41421356237309509
0
CIRCLE
5
101
100
AcDbEntity
8
0
100
AcDbCircle
10
73.449363228424886
20
171.03768696722338
30
0
40
1.330000000000009
210
7.7037197775489434e-34
220
6.4146350092149934e-50
230
1
0
LINE
5
102
100
AcDbEntity
8
0
100
AcDbLine
10
-147.71063677157511
20
1.0376869672236524
30
0
11
152.28936322842324
21
1.0376869672236608
31
2.505716745004757e-50
0
LINE
5
103
100
AcDbEntity
8
0
100
AcDbLine
10
152.28936322842321
20
1.0376869672236608
30
0
11
152.28936322842489
21
201.03768696722364
31
0
0
LINE
5
104
100
AcDbEntity
8
0
100
AcDbLine
10
152.28936322842489
20
201.03768696722364
30
0
11
-147.71063677157511
21
201.03768696722358
31
7.7037195151337629e-32
0
LINE
5
105
100
AcDbEntity
8
0
100
AcDbLine
10
-147.71063677157514
20
201.03768696722364
30
0
11
-147.71063677157511
21
1.0376869672236566
31
0
0
LWPOLYLINE
5
106
100
AcDbEntity
8
0
100
AcDbPolyline
90
22
70
1
43
0.0
10
-82.762360909505972
20
121.2939724355013
42
-0.86918413491812097
10
-84.21063677157494
20
110.99768696722386
10
-85.710636771574954
20
110.99768696722381
42
0.41421356237309509
10
-87.71063677157494
20
108.99768696722383
10
-87.71063677157494
20
89.747686967223842
42
0.41421356237309243
10
-85.710636771574968
20
87.747686967223842
10
-59.710636771574947
20
87.747686967223842
42
0.41421356237309509
10
-57.710636771574954
20
89.747686967223842
10
-57.71063677157494
20
108.99768696722384
42
0.41421356237309509
10
-59.710636771574947
20
110.99768696722386
10
-61.210636771574976
20
110.99768696722386
42
-0.86918413491811997
10
-62.658912633643943
20
121.29397243550129
42
0.33453033350941153
10
-61.210636771574976
20
123.216366899607
10
-61.210636771574968
20
167.27900703484067
42
0.33453033350940914
10
-62.658912633643943
20
169.20140149894638
42
-0.25849288187209241
10
-66.256922239852443
20
172.79941110515489
42
0.33453033350941125
10
-68.17931670395815
20
174.24768696722384
10
-77.241956839191772
20
174.24768696722384
42
0.33453033350941153
10
-79.164351303297479
20
172.79941110515489
42
-0.25849288187209141
10
-82.762360909505972
20
169.20140149894638
42
0.33453033350941153
10
-84.21063677157494
20
167.27900703484067
10
-84.21063677157494
20
123.216366899607
42
0.33453033350941086
0
CIRCLE
5
107
100
AcDbEntity
8
0
100
AcDbCircle
10
37.284363228424411
20
117.24768696722347
30
1.1102230246251565e-15
40
1.25
210
6.841442185849517e-49
220
5.6966447152927934e-65
230
1
0
CIRCLE
5
108
100
AcDbEntity
8
0
100
AcDbCircle
10
37.284363228423935
20
68.247686967223501
30
0
40
1.25
210
6.841442185849517e-49
220
5.6966447152927934e-65
230
1
0
CIRCLE
5
109
100
AcDbEntity
8
0
100
AcDbCircle
10
-107.71063677157508
20
41.037686967224616
30
0
40
1.9999999999999929
210
6.841442185849517e-49
220
5.6966447152927934e-65
230
1
0
CIRCLE
5
110
100
AcDbEntity
8
0
100
AcDbCircle
10
112.28936322842493
20
41.037686967223763
30
0
40
2
210
6.9483527742532071e-49
220
-3.8518598887744717e-34
230
1
0
CIRCLE
5
111
100
AcDbEntity
8
0
100
AcDbCircle
10
-20.715636771575412
20
117.24768696722353
30
0
40
1.25
210
6.841442185849517e-49
220
5.6966447152927934e-65
230
1
0
CIRCLE
5
112
100
AcDbEntity
8
0
100
AcDbCircle
10
-20.715636771575902
20
68.247686967223672
30
0
40
1.25
210
6.841442185849517e-49
220
5.6966447152927934e-65
230
1
0
CIRCLE
5
113
100
AcDbEntity
8
0
100
AcDbCircle
10
122.28936322842489
20
171.03768696722364
30
-1.1102230246251565e-15
40
1.25
210
6.841442185849517e-49
220
5.6966447152927934e-65
230
1
0
LWPOLYLINE
5
114
100
AcDbEntity
8
0
100
AcDbPolyline
90
4
70
1
43
0.0
10
65.289363228424961
20
33.037686967223735
10
65.289363228424961
20
27.037686967223724
42
0.99999999999999989
10
69.289363228424975
20
27.037686967223724
10
69.289363228424975
20
33.037686967223735
42
0.99999999999999989
0
LWPOLYLINE
5
115
100
AcDbEntity
8
0
100
AcDbPolyline
90
4
70
1
43
0.0
10
25.289363228424957
20
33.037686967223735
10
25.289363228424957
20
27.037686967223724
42
0.99999999999999989
10
29.289363228424975
20
27.037686967223724
10
29.289363228424964
20
33.037686967223735
42
0.99999999999999989
0
LWPOLYLINE
5
116
100
AcDbEntity
8
0
100
AcDbPolyline
90
4
70
1
43
0.0
10
5.2893632284249552
20
33.037686967223735
10
5.2893632284249552
20
27.037686967223724
42
0.99999999999999989
10
9.2893632284249765
20
27.037686967223724
10
9.2893632284249819
20
33.037686967223735
42
0.99999999999999989
0
LWPOLYLINE
5
117
100
AcDbEntity
8
0
100
AcDbPolyline
90
4
70
1
43
0.0
10
-54.710636771575011
20
33.037686967223735
10
-54.710636771575011
20
27.037686967223724
42
0.99999999999999989
10
-50.710636771575025
20
27.037686967223724
10
-50.710636771575011
20
33.037686967223735
42
0.99999999999999989
0
CIRCLE
5
118
100
AcDbEntity
8
0
100
AcDbCircle
10
-84.21063677157494
20
116.24768696722384
30
1.1102230246251565e-15
40
1.25
210
6.841442185849517e-49
220
5.6966447152927934e-65
230
1
0
CIRCLE
5
119
100
AcDbEntity
8
0
100
AcDbCircle
10
-84.21063677157494
20
174.24768696722384
30
0
40
1.25
210
6.841442185849517e-49
220
5.6966447152927934e-65
230
1
0
LWPOLYLINE
5
120
100
AcDbEntity
8
0
100
AcDbPolyline
90
4
70
1
43
0.0
10
-64.710636771575011
20
33.037686967223735
10
-64.710636771575011
20
27.037686967223724
42
0.99999999999999989
10
-60.710636771575025
20
27.037686967223724
10
-60.710636771575011
20
33.037686967223735
42
0.99999999999999989
0
LWPOLYLINE
5
121
100
AcDbEntity
8
0
100
AcDbPolyline
90
4
70
1
43
0.0
10
-34.710636771575039
20
33.037686967223735
10
-34.710636771575039
20
27.037686967223724
42
0.99999999999999989
10
-30.710636771575025
20
27.037686967223724
10
-30.710636771575018
20
33.037686967223735
42
0.99999999999999989
0
LWPOLYLINE
5
122
100
AcDbEntity
8
0
100
AcDbPolyline
90
4
70
1
43
0.0
10
-24.710636771575043
20
33.037686967223735
10
-24.710636771575043
20
27.037686967223724
42
0.99999999999999989
10
-20.710636771575025
20
27.037686967223724
10
-20.710636771575018
20
33.037686967223735
42
0.99999999999999989
0
LWPOLYLINE
5
123
100
AcDbEntity
8
0
100
AcDbPolyline
90
4
70
1
43
0.0
10
55.289363228424961
20
33.037686967223735
10
55.289363228424961
20
27.037686967223724
42
0.99999999999999989
10
59.289363228424975
20
27.037686967223724
10
59.289363228424968
20
33.037686967223735
42
0.99999999999999989
0
LWPOLYLINE
5
124
100
AcDbEntity
8
0
100
AcDbPolyline
90
4
70
1
43
0.0
10
75.289363228424961
20
33.037686967223735
10
75.289363228424961
20
27.037686967223724
42
0.99999999999999989
10
79.289363228424975
20
27.037686967223724
10
79.289363228424975
20
33.037686967223735
42
0.99999999999999989
0
LWPOLYLINE
5
125
100
AcDbEntity
8
0
100
AcDbPolyline
90
4
70
1
43
0.0
10
35.289363228424961
20
33.037686967223735
10
35.289363228424961
20
27.037686967223724
42
0.99999999999999989
10
39.289363228424975
20
27.037686967223724
10
39.289363228424968
20
33.037686967223735
42
0.99999999999999989
0
LWPOLYLINE
5
126
100
AcDbEntity
8
0
100
AcDbPolyline
90
4
70
1
43
0.0
10
-14.710636771575045
20
33.037686967223735
10
-14.710636771575045
20
27.037686967223724
42
0.99999999999999989
10
-10.710636771575023
20
27.037686967223724
10
-10.710636771575018
20
33.037686967223735
42
0.99999999999999989
0
LWPOLYLINE
5
127
100
AcDbEntity
8
0
100
AcDbPolyline
90
4
70
1
43
0.0
10
-44.710636771575039
20
33.037686967223735
10
-44.710636771575039
20
27.037686967223724
42
0.99999999999999989
10
-40.710636771575025
20
27.037686967223724
10
-40.710636771575011
20
33.037686967223735
42
0.99999999999999989
0
CIRCLE
5
128
100
AcDbEntity
8
0
100
AcDbCircle
10
-61.210636771574968
20
116.24768696722384
30
0
40
1.25
210
6.841442185849517e-49
220
5.6966447152927934e-65
230
1
0
CIRCLE
5
129
100
AcDbEntity
8
0
100
AcDbCircle
10
-61.210636771574976
20
174.24768696722384
30
-1.1102230246251565e-15
40
1.25
210
6.841442185849517e-49
220
5.6966447152927934e-65
230
1
0
LWPOLYLINE
5
130
100
AcDbEntity
8
0
100
AcDbPolyline
90
4
70
1
43
0.0
10
-74.710636771575011
20
33.037686967223735
10
-74.710636771575011
20
27.037686967223724
42
0.99999999999999989
10
-70.710636771575025
20
27.037686967223724
10
-70.710636771575011
20
33.037686967223735
42
0.99999999999999989
0
LWPOLYLINE
5
131
100
AcDbEntity
8
0
100
AcDbPolyline
90
4
70
1
43
0.0
10
15.289363228424955
20
33.037686967223735
10
15.289363228424955
20
27.037686967223724
42
0.99999999999999989
10
19.289363228424975
20
27.037686967223724
10
19.289363228424982
20
33.037686967223735
42
0.99999999999999989
0
LWPOLYLINE
5
132
100
AcDbEntity
8
0
100
AcDbPolyline
90
4
70
1
43
0.0
10
-0.7106367715750237
20
27.037686967223724
10
-0.71063677157502414
20
33.037686967223735
42
0.99999999999999989
10
-4.7106367715750457
20
33.037686967223735
10
-4.7106367715750528
20
27.037686967223724
42
0.99999999999999989
0
LWPOLYLINE
5
133
100
AcDbEntity
8
0
100
AcDbPolyline
90
4
70
1
43
0.0
10
45.289363228424961
20
33.037686967223735
10
45.289363228424961
20
27.037686967223724
42
0.99999999999999989
10
49.289363228424975
20
27.037686967223724
10
49.289363228424968
20
33.037686967223735
42
0.99999999999999989
0
LWPOLYLINE
5
134
100
AcDbEntity
8
0
100
AcDbPolyline
90
4
70
1
43
0.0
10
27.289363228424833
20
4.0376869672236646
10
27.289363228424772
20
5.0376869672236788
10
-22.710636771574908
20
5.0376869672237135
10
-22.710636771574961
20
4.0376869672237339
0
LWPOLYLINE
5
135
100
AcDbEntity
8
0
100
AcDbPolyline
90
6
70
1
43
0.0
10
129.28936322842276
20
198.03768696722372
10
129.28936322842276
20
197.03768696722329
10
148.28936322842276
20
197.03768696722324
10
148.28936322842276
20
178.03768696722369
10
149.28936322842273
20
178.03768696722369
10
149.28936322842276
20
198.03768696722369
0
LWPOLYLINE
5
136
100
AcDbEntity
8
0
100
AcDbPolyline
90
6
70
1
43
0.0
10
-144.71063677157269
20
178.03768696722389
10
-143.71063677157267
20
178.03768696722389
10
-143.71063677157267
20
197.03768696722341
10
-124.71063677157275
20
197.03768696722341
10
-124.71063677157268
20
198.03768696722389
10
-144.71063677157269
20
198.03768696722386
0
LWPOLYLINE
5
137
100
AcDbEntity
8
0
100
AcDbPolyline
90
4
70
1
43
0.0
10
-143.71063677157275
20
81.037686967223408
10
-143.71063677157275
20
121.03768696722386
10
-144.71063677157272
20
121.03768696722386
10
-144.71063677157272
20
81.037686967223408
0
LWPOLYLINE
5
138
100
AcDbEntity
8
0
100
AcDbPolyline
90
6
70
1
43
0.0
10
148.28936322842264
20
24.037686967223561
10
148.28936322842262
20
5.0376869672235758
10
129.28936322831981
20
5.0376869672236104
10
129.28936322831927
20
4.0376869672235962
10
149.28936322842262
20
4.0376869672235616
10
149.28936322842264
20
24.037686967223543
0
LWPOLYLINE
5
139
100
AcDbEntity
8
0
100
AcDbPolyline
90
4
70
1
43
0.0
10
-22.710636771574961
20
198.03768696722381
10
-22.710636771574961
20
197.03768696722335
10
27.289363228425039
20
197.03768696722332
10
27.289363228425039
20
198.03768696722375
0
LWPOLYLINE
5
140
100
AcDbEntity
8
0
100
AcDbPolyline
90
6
70
1
43
0.0
10
-124.71063677146999
20
4.0376869672238023
10
-124.71063677147052
20
5.0376869672238165
10
-143.71063677157278
20
5.0376869672238156
10
-143.71063677157278
20
24.03768696722334
10
-144.71063677157281
20
24.03768696722334
10
-144.71063677157281
20
4.0376869672238378
0
LWPOLYLINE
5
141
100
AcDbEntity
8
0
100
AcDbPolyline
90
4
70
1
43
0.0
10
149.2893632284227
20
121.03768696722362
10
148.2893632284227
20
121.03768696722362
10
148.28936322842267
20
81.037686967223621
10
149.28936322842264
20
81.037686967223621
0
CIRCLE
5
142
100
AcDbEntity
8
0
100
AcDbCircle
10
142.28936322842489
20
191.03768696722375
30
-1.1102230246251565e-15
40
1.4999999999999991
210
7.7037197775489434e-34
220
6.4146350092149934e-50
230
1
0
CIRCLE
5
143
100
AcDbEntity
8
0
100
AcDbCircle
10
142.2893632284248
20
11.03768696722366
30
0
40
1.4999999999999991
210
7.7037197775489434e-34
220
6.4146350092149934e-50
230
1
0
CIRCLE
5
144
100
AcDbEntity
8
0
100
AcDbCircle
10
-44.377303438242741
20
191.03768696722366
30
-1.1102230246251565e-15
40
1.5000000000000036
210
7.7037197775489434e-34
220
6.4146350092149934e-50
230
1
0
CIRCLE
5
145
100
AcDbEntity
8
0
100
AcDbCircle
10
48.956029895091611
20
191.03768696722372
30
0
40
1.5000000000000036
210
7.7037197775489434e-34
220
6.4146350092149934e-50
230
1
0
CIRCLE
5
146
100
AcDbEntity
8
0
100
AcDbCircle
10
-137.71063677157511
20
191.03768696722364
30
0
40
1.4999999999999858
210
-8.3523891500159008e-53
220
-6.9547607388863219e-69
230
1
0
CIRCLE
5
147
100
AcDbEntity
8
0
100
AcDbCircle
10
48.956029895091618
20
11.037686967223408
30
0
40
1.4999999999999947
210
7.7037197775489434e-34
220
3.8518598887744726e-34
230
1
0
CIRCLE
5
148
100
AcDbEntity
8
0
100
AcDbCircle
10
-137.71063677157508
20
11.037686967222836
30
0
40
1.4999999999999858
210
-8.3523891500159008e-53
220
-6.9547607388863219e-69
230
1
0
CIRCLE
5
149
100
AcDbEntity
8
0
100
AcDbCircle
10
-44.37730343824272
20
11.037686967223053
30
0
40
1.4999999999999858
210
-8.3523891500159008e-53
220
-6.9547607388863219e-69
230
1
0
CIRCLE
5
150
100
AcDbEntity
8
0
100
AcDbCircle
10
122.28936322842489
20
151.03768696722364
30
0
40
1.25
210
6.8414421858490005e-49
220
5.6966447152923633e-65
230
1
0
CIRCLE
5
151
100
AcDbEntity
8
0
100
AcDbCircle
10
99.939363228424924
20
120.43768696722367
30
0
40
1.25
210
2.2759804589593252e-50
220
-8.2000837974973943e-34
230
1
0
CIRCLE
5
152
100
AcDbEntity
8
0
100
AcDbCircle
10
122.28936322842493
20
120.43768696722366
30
2.2204460492503131e-15
40
1.25
210
2.2759804589593252e-50
220
-8.2000837974973943e-34
230
1
0
CIRCLE
5
153
100
AcDbEntity
8
0
100
AcDbCircle
10
99.939363228424881
20
151.03768696722366
30
0
40
1.25
210
2.2759804589593252e-50
220
-8.2000837974973943e-34
230
1
0
ENDSEC
0
SECTION
2
OBJECTS
0
DICTIONARY
5
C
100
AcDbDictionary
3
ACAD_GROUP
350
D
3
ACAD_MLINESTYLE
350
17
0
DICTIONARY
5
D
100
AcDbDictionary
0
DICTIONARY
5
1A
330
C
100
AcDbDictionary
0
DICTIONARY
5
17
100
AcDbDictionary
0
ENDSEC
0
EOF
