0
SECTION
2
HEADER
9
$INSUNITS
70
4
9
$ACADVER
1
AC1014
9
$HANDSEED
5
FFFF
0
ENDSEC
0
SECTION
2
TABLES
0
TABLE
2
VPORT
5
8
100
AcDbSymbolTable
0
ENDTAB
0
TABLE
2
LTYPE
5
5
100
AcDbSymbolTable
0
LTYPE
5
14
100
AcDbSymbolTableRecord
100
AcDbLinetypeTableRecord
2
BYBLOCK
70
0
0
LTYPE
5
15
100
AcDbSymbolTableRecord
100
AcDbLinetypeTableRecord
2
BYLAYER
70
0
0
ENDTAB
0
TABLE
2
LAYER
5
2
100
AcDbSymbolTable
70
2
0
LAYER
5
50
100
AcDbSymbolTableRecord
100
AcDbLayerTableRecord
2
0
70
0
6
CONTINUOUS
0
ENDTAB
0
TABLE
2
STYLE
5
3
100
AcDbSymbolTable
70
1
0
STYLE
5
11
100
AcDbSymbolTableRecord
100
AcDbTextStyleTableRecord
2
STANDARD
70
0
0
ENDTAB
0
TABLE
2
VIEW
5
6
100
AcDbSymbolTable
70
0
0
ENDTAB
0
TABLE
2
UCS
5
7
100
AcDbSymbolTable
70
0
0
ENDTAB
0
TABLE
2
APPID
5
9
100
AcDbSymbolTable
70
2
0
APPID
5
12
100
AcDbSymbolTableRecord
100
AcDbRegAppTableRecord
2
ACAD
70
0
0
ENDTAB
0
TABLE
2
DIMSTYLE
5
A
100
AcDbSymbolTable
70
1
0
ENDTAB
0
TABLE
2
BLOCK_RECORD
5
1
100
AcDbSymbolTable
70
1
0
BLOCK_RECORD
5
1F
100
AcDbSymbolTableRecord
100
AcDbBlockTableRecord
2
*MODEL_SPACE
0
BLOCK_RECORD
5
1B
100
AcDbSymbolTableRecord
100
AcDbBlockTableRecord
2
*PAPER_SPACE
0
ENDTAB
0
ENDSEC
0
SECTION
2
BLOCKS
0
BLOCK
5
20
100
AcDbEntity
100
AcDbBlockBegin
2
*MODEL_SPACE
0
ENDBLK
5
21
100
AcDbEntity
100
AcDbBlockEnd
0
BLOCK
5
1C
100
AcDbEntity
100
AcDbBlockBegin
2
*PAPER_SPACE
0
ENDBLK
5
1D
100
AcDbEntity
100
AcDbBlockEnd
0
ENDSEC
0
SECTION
2
ENTITIES
0
LINE
5
100
100
AcDbEntity
8
0
100
AcDbLine
10
-254.40499999999957
20
178.9599999999997
30
0
11
-254.40499999999957
21
-21.040000000000276
31
0
0
LINE
5
101
100
AcDbEntity
8
0
100
AcDbLine
10
-254.40499999999957
20
-21.040000000000276
30
0
11
45.595000000000425
21
-21.040000000000276
31
0
0
LINE
5
102
100
AcDbEntity
8
0
100
AcDbLine
10
45.595000000000439
20
-21.040000000000276
30
0
11
45.594999999998777
21
178.9599999999997
31
0
0
LINE
5
103
100
AcDbEntity
8
0
100
AcDbLine
10
45.594999999998777
20
178.9599999999997
30
0
11
-254.40499999999957
21
178.9599999999997
31
0
0
LWPOLYLINE
5
104
100
AcDbEntity
8
0
100
AcDbPolyline
90
4
70
1
43
0.0
10
-79.404999999999688
20
174.95999999999967
10
-79.404999999999617
20
175.9599999999997
10
-129.4049999999994
20
175.95999999999961
10
-129.40499999999935
20
174.95999999999964
0
LWPOLYLINE
5
105
100
AcDbEntity
8
0
100
AcDbPolyline
90
6
70
1
43
0.0
10
22.594999999998322
20
-17.039999999999935
10
22.594999999998322
20
-18.040000000000358
10
42.594999999998322
20
-18.04000000000034
10
42.594999999998308
20
1.9599999999996602
10
41.594999999998308
20
1.9599999999996598
10
41.594999999998322
20
-17.0399999999999
0
LWPOLYLINE
5
106
100
AcDbEntity
8
0
100
AcDbPolyline
90
6
70
1
43
0.0
10
-250.4049999999971
20
1.9599999999994289
10
-251.40499999999713
20
1.9599999999994289
10
-251.40499999999713
20
-18.040000000000553
10
-231.40499999999713
20
-18.040000000000536
10
-231.40499999999719
20
-17.040000000000077
10
-250.4049999999971
20
-17.040000000000095
0
LWPOLYLINE
5
107
100
AcDbEntity
8
0
100
AcDbPolyline
90
4
70
1
43
0.0
10
-250.40499999999719
20
58.959999999999482
10
-250.40499999999719
20
98.959999999999937
10
-251.40499999999719
20
98.959999999999937
10
-251.40499999999719
20
58.959999999999475
0
LWPOLYLINE
5
108
100
AcDbEntity
8
0
100
AcDbPolyline
90
6
70
1
43
0.0
10
41.594999999998166
20
174.95999999999978
10
41.59499999999818
20
155.95999999999978
10
42.59499999999818
20
155.95999999999981
10
42.594999999998166
20
175.95999999999978
10
22.594999999894831
20
175.95999999999975
10
22.594999999895364
20
174.95999999999975
0
LWPOLYLINE
5
109
100
AcDbEntity
8
0
100
AcDbPolyline
90
4
70
1
43
0.0
10
-129.4049999999994
20
-17.040000000000006
10
-129.4049999999994
20
-18.040000000000465
10
-79.404999999999404
20
-18.040000000000429
10
-79.404999999999404
20
-17.039999999999988
0
LWPOLYLINE
5
110
100
AcDbEntity
8
0
100
AcDbPolyline
90
6
70
1
43
0.0
10
-231.40499999989498
20
174.95999999999952
10
-231.40499999989444
20
175.95999999999952
10
-251.40499999999724
20
175.9599999999995
10
-251.40499999999724
20
155.96000000000001
10
-250.40499999999724
20
155.96000000000001
10
-250.40499999999724
20
174.95999999999952
0
LWPOLYLINE
5
111
100
AcDbEntity
8
0
100
AcDbPolyline
90
4
70
1
43
0.0
10
41.594999999998251
20
58.959999999999724
10
42.594999999998251
20
58.959999999999724
10
42.594999999998215
20
98.959999999999724
10
41.594999999998223
20
98.959999999999724
0
CIRCLE
5
112
100
AcDbEntity
8
0
100
AcDbCircle
10
-244.40499999999955
20
168.96000000000049
30
0
40
1.4999999999999858
210
0
220
-0
230
1
0
CIRCLE
5
113
100
AcDbEntity
8
0
100
AcDbCircle
10
35.595000000000439
20
-11.04000000000042
30
0
40
1.5000000000000002
210
0
220
-0
230
1
0
CIRCLE
5
114
100
AcDbEntity
8
0
100
AcDbCircle
10
-244.40499999999955
20
-11.040000000000274
30
0
40
1.4999999999999858
210
0
220
-0
230
1
0
LWPOLYLINE
5
115
100
AcDbEntity
8
0
100
AcDbPolyline
90
4
70
1
43
0.0
10
0.30000000000001137
20
-0.30000000000001137
10
0.30000000000001137
20
164.55000000000001
10
-210.46000000000004
20
164.55000000000001
10
-210.46000000000004
20
-0.30000000000001137
0
CIRCLE
5
116
100
AcDbEntity
8
0
100
AcDbCircle
10
35.595000000000347
20
168.9599999999997
30
0
40
1.5000000000000002
210
0
220
-0
230
1
0
CIRCLE
5
117
100
AcDbEntity
8
0
100
AcDbCircle
10
-151.07166666666717
20
168.96000000000029
30
0
40
1.4999999999999858
210
0
220
0
230
1
0
CIRCLE
5
118
100
AcDbEntity
8
0
100
AcDbCircle
10
-151.07166666666717
20
-11.040000000000322
30
0
40
1.5000000000000036
210
0
220
0
230
1
0
CIRCLE
5
119
100
AcDbEntity
8
0
100
AcDbCircle
10
-57.738333333332832
20
168.95999999999992
30
0
40
1.4999999999999947
210
0
220
0
230
1
0
CIRCLE
5
120
100
AcDbEntity
8
0
100
AcDbCircle
10
-57.738333333332825
20
-11.040000000000372
30
0
40
1.5000000000000036
210
0
220
0
230
1
0
ENDSEC
0
SECTION
2
OBJECTS
0
DICTIONARY
5
C
100
AcDbDictionary
3
ACAD_GROUP
350
D
3
ACAD_MLINESTYLE
350
17
0
DICTIONARY
5
D
100
AcDbDictionary
0
DICTIONARY
5
1A
330
C
100
AcDbDictionary
0
DICTIONARY
5
17
100
AcDbDictionary
0
ENDSEC
0
EOF
